<?xml version="1.0" encoding="UTF-8" standalone="no"?><!-- Generator: Gravit.io --><svg xmlns="http://www.w3.org/2000/svg" xmlns:xlink="http://www.w3.org/1999/xlink" style="isolation:isolate" viewBox="0 0 800 538" width="800pt" height="538pt"><defs><clipPath id="_clipPath_PweH0zoNDAkR0BXL5jxdEwEAcmlZNeTU"><rect width="800" height="538"/></clipPath></defs><g clip-path="url(#_clipPath_PweH0zoNDAkR0BXL5jxdEwEAcmlZNeTU)"><g style="isolation:isolate"><path d=" M 178.265 352.257 L 178.265 352.257 L 178.265 333.225 L 178.265 333.225 Q 178.265 327.613 178.021 318.097 L 178.021 318.097 L 178.021 318.097 Q 163.747 318.097 159.111 318.463 L 159.111 318.463 L 159.111 318.463 Q 158.867 317.853 158.867 315.413 L 158.867 315.413 L 158.867 315.413 Q 158.867 313.217 159.904 312.363 L 159.904 312.363 L 159.904 312.363 Q 160.941 311.509 163.259 311.509 L 163.259 311.509 L 163.259 311.509 Q 164.235 311.509 168.078 311.448 L 168.078 311.448 L 168.078 311.448 Q 171.921 311.387 174.361 311.387 L 174.361 311.387 L 186.195 311.387 L 186.195 311.387 Q 202.421 311.387 205.959 311.143 L 205.959 311.143 L 205.959 311.143 Q 206.203 312.363 206.203 314.071 L 206.203 314.071 L 206.203 314.071 Q 206.203 318.097 201.811 318.097 L 201.811 318.097 L 187.659 318.097 L 187.659 318.097 Q 187.659 319.439 187.476 322.672 L 187.476 322.672 L 187.476 322.672 Q 187.293 325.905 187.171 329.321 L 187.171 329.321 L 187.171 329.321 Q 187.049 332.737 187.049 335.787 L 187.049 335.787 L 187.049 354.941 L 187.049 354.941 Q 187.049 367.751 189.001 373.729 L 189.001 373.729 L 189.001 373.729 Q 187.171 374.461 183.633 374.461 L 183.633 374.461 L 183.633 374.461 Q 180.339 374.461 179.18 373.241 L 179.18 373.241 L 179.18 373.241 Q 178.021 372.021 178.021 369.093 L 178.021 369.093 L 178.021 369.093 Q 178.021 367.629 178.143 361.651 L 178.143 361.651 L 178.143 361.651 Q 178.265 355.673 178.265 352.257 Z  M 263.665 315.169 L 263.665 315.169 L 263.665 315.169 Q 263.665 318.097 256.711 328.101 L 256.711 328.101 L 256.711 328.101 Q 249.757 338.105 243.535 345.303 L 243.535 345.303 L 243.535 354.453 L 243.535 354.453 Q 243.535 367.385 245.365 373.729 L 245.365 373.729 L 245.365 373.729 Q 243.535 374.461 239.997 374.461 L 239.997 374.461 L 239.997 374.461 Q 236.703 374.461 235.605 373.241 L 235.605 373.241 L 235.605 373.241 Q 234.507 372.021 234.507 369.093 L 234.507 369.093 L 234.507 369.093 Q 234.507 368.727 234.568 362.566 L 234.568 362.566 L 234.568 362.566 Q 234.629 356.405 234.629 352.257 L 234.629 352.257 L 234.629 345.791 L 234.629 345.791 Q 220.355 320.415 212.913 315.657 L 212.913 315.657 L 212.913 315.657 Q 217.061 310.777 220.233 310.777 L 220.233 310.777 L 220.233 310.777 Q 223.283 310.777 225.601 314.071 L 225.601 314.071 L 225.601 314.071 Q 233.165 324.685 240.607 338.593 L 240.607 338.593 L 240.607 338.593 Q 245.487 331.883 250.245 322.733 L 250.245 322.733 L 250.245 322.733 Q 255.003 313.583 255.247 310.289 L 255.247 310.289 L 255.247 310.289 Q 263.665 310.777 263.665 315.169 Z  M 294.043 344.937 L 294.043 344.937 L 294.043 344.937 Q 300.387 344.937 303.925 341.338 L 303.925 341.338 L 303.925 341.338 Q 307.463 337.739 307.463 331.639 L 307.463 331.639 L 307.463 331.639 Q 307.463 323.221 303.498 320.049 L 303.498 320.049 L 303.498 320.049 Q 299.533 316.877 291.115 316.877 L 291.115 316.877 L 291.115 316.877 Q 290.627 316.877 284.405 317.243 L 284.405 317.243 L 284.405 317.243 Q 284.771 325.295 284.771 335.665 L 284.771 335.665 L 284.771 342.985 L 284.771 342.985 Q 288.675 344.937 294.043 344.937 Z  M 275.865 352.257 L 275.865 352.257 L 275.865 333.225 L 275.865 333.225 Q 275.865 320.049 274.645 311.387 L 274.645 311.387 L 274.645 311.387 Q 281.233 310.289 289.895 310.289 L 289.895 310.289 L 289.895 310.289 Q 317.223 310.289 317.223 331.029 L 317.223 331.029 L 317.223 331.029 Q 317.223 341.155 311.062 346.401 L 311.062 346.401 L 311.062 346.401 Q 304.901 351.647 296.605 351.647 L 296.605 351.647 L 296.605 351.647 Q 289.407 351.647 284.771 348.597 L 284.771 348.597 L 284.771 355.307 L 284.771 355.307 Q 284.771 367.873 286.723 373.851 L 286.723 373.851 L 286.723 373.851 Q 284.527 374.461 281.355 374.461 L 281.355 374.461 L 281.355 374.461 Q 278.061 374.461 276.902 373.241 L 276.902 373.241 L 276.902 373.241 Q 275.743 372.021 275.743 369.093 L 275.743 369.093 L 275.743 369.093 Q 275.743 367.629 275.804 361.651 L 275.804 361.651 L 275.804 361.651 Q 275.865 355.673 275.865 352.257 Z  M 340.281 318.097 L 340.281 318.097 L 340.281 318.097 Q 340.647 321.025 340.647 337.007 L 340.647 337.007 L 348.455 337.007 L 348.455 337.007 Q 356.629 337.007 360.167 336.641 L 360.167 336.641 L 360.167 336.641 Q 360.533 337.617 360.533 339.325 L 360.533 339.325 L 360.533 339.325 Q 360.533 341.765 359.496 342.68 L 359.496 342.68 L 359.496 342.68 Q 358.459 343.595 356.263 343.717 L 356.263 343.717 L 356.263 343.717 Q 353.701 343.839 349.309 343.839 L 349.309 343.839 L 340.647 343.839 L 340.647 343.839 Q 340.647 363.481 341.379 367.507 L 341.379 367.507 L 341.379 367.507 Q 345.771 367.751 348.455 367.751 L 348.455 367.751 L 348.455 367.751 Q 364.559 367.751 369.561 365.555 L 369.561 365.555 L 369.561 365.555 Q 370.415 367.751 370.415 370.191 L 370.415 370.191 L 370.415 370.191 Q 370.415 372.143 369.439 372.997 L 369.439 372.997 L 369.439 372.997 Q 367.609 374.339 352.847 374.339 L 352.847 374.339 L 352.847 374.339 Q 349.919 374.339 343.453 374.278 L 343.453 374.278 L 343.453 374.278 Q 336.987 374.217 336.743 374.217 L 336.743 374.217 L 336.743 374.217 Q 333.693 374.095 332.656 372.875 L 332.656 372.875 L 332.656 372.875 Q 331.619 371.655 331.619 368.849 L 331.619 368.849 L 331.619 368.849 Q 331.619 367.141 331.741 361.346 L 331.741 361.346 L 331.741 361.346 Q 331.863 355.551 331.863 352.257 L 331.863 352.257 L 331.863 333.591 L 331.863 333.591 Q 331.863 319.683 330.399 311.753 L 330.399 311.753 L 330.399 311.753 Q 342.355 310.899 352.725 310.899 L 352.725 310.899 L 352.725 310.899 Q 367.487 310.899 369.317 312.363 L 369.317 312.363 L 369.317 312.363 Q 370.293 313.217 370.293 315.169 L 370.293 315.169 L 370.293 315.169 Q 370.293 317.609 369.439 319.805 L 369.439 319.805 L 369.439 319.805 Q 363.583 317.853 351.139 317.853 L 351.139 317.853 L 351.139 317.853 Q 346.381 317.853 340.281 318.097 Z  M 427.755 360.431 L 427.755 360.431 L 427.755 360.431 Q 432.513 362.383 432.513 365.921 L 432.513 365.921 L 432.513 365.921 Q 432.513 369.581 426.779 372.326 L 426.779 372.326 L 426.779 372.326 Q 421.045 375.071 412.383 375.071 L 412.383 375.071 L 412.383 375.071 Q 398.109 375.071 389.447 366.165 L 389.447 366.165 L 389.447 366.165 Q 380.785 357.259 380.785 342.741 L 380.785 342.741 L 380.785 342.741 Q 380.785 327.491 389.386 318.89 L 389.386 318.89 L 389.386 318.89 Q 397.987 310.289 412.871 310.289 L 412.871 310.289 L 412.871 310.289 Q 420.801 310.289 426.169 313.278 L 426.169 313.278 L 426.169 313.278 Q 431.537 316.267 431.537 320.659 L 431.537 320.659 L 431.537 320.659 Q 431.537 325.173 424.827 326.271 L 424.827 326.271 L 424.827 326.271 Q 423.119 321.757 419.154 319.378 L 419.154 319.378 L 419.154 319.378 Q 415.189 316.999 410.797 316.999 L 410.797 316.999 L 410.797 316.999 Q 401.891 316.999 396.157 323.831 L 396.157 323.831 L 396.157 323.831 Q 390.423 330.663 390.423 340.789 L 390.423 340.789 L 390.423 340.789 Q 390.423 352.623 396.157 360.553 L 396.157 360.553 L 396.157 360.553 Q 401.891 368.483 412.261 368.483 L 412.261 368.483 L 412.261 368.483 Q 416.897 368.483 421.106 366.409 L 421.106 366.409 L 421.106 366.409 Q 425.315 364.335 427.755 360.431 Z  M 571.105 374.217 L 571.105 374.217 L 571.105 374.217 Q 568.665 374.461 567.323 374.461 L 567.323 374.461 L 567.323 374.461 Q 563.175 374.461 561.467 372.021 L 561.467 372.021 L 561.467 372.021 Q 557.807 366.409 547.681 349.573 L 547.681 349.573 L 547.681 349.573 Q 537.555 332.737 531.089 323.343 L 531.089 323.343 L 531.089 323.343 Q 531.333 332.493 531.333 352.135 L 531.333 352.135 L 531.333 352.135 Q 531.333 368.239 533.285 373.851 L 533.285 373.851 L 533.285 373.851 Q 531.089 374.461 529.015 374.461 L 529.015 374.461 L 529.015 374.461 Q 525.721 374.461 524.623 373.241 L 524.623 373.241 L 524.623 373.241 Q 523.525 372.021 523.525 369.093 L 523.525 369.093 L 523.525 369.093 Q 523.525 367.629 523.586 361.651 L 523.586 361.651 L 523.586 361.651 Q 523.647 355.673 523.647 352.257 L 523.647 352.257 L 523.647 333.225 L 523.647 333.225 Q 523.647 317.365 521.817 311.509 L 521.817 311.509 L 521.817 311.509 Q 524.013 310.777 527.063 310.777 L 527.063 310.777 L 527.063 310.777 Q 530.845 310.777 533.407 313.583 L 533.407 313.583 L 533.407 313.583 Q 538.165 318.463 547.315 332.859 L 547.315 332.859 L 547.315 332.859 Q 556.465 347.255 563.419 360.065 L 563.419 360.065 L 563.419 360.065 Q 562.809 351.281 562.809 333.835 L 562.809 333.835 L 562.809 333.835 Q 562.809 320.659 562.077 311.143 L 562.077 311.143 L 562.077 311.143 Q 564.029 310.899 565.615 310.899 L 565.615 310.899 L 565.615 310.899 Q 571.227 310.899 571.227 314.559 L 571.227 314.559 L 571.227 314.559 Q 571.227 315.047 571.044 318.341 L 571.044 318.341 L 571.044 318.341 Q 570.861 321.635 570.678 326.515 L 570.678 326.515 L 570.678 326.515 Q 570.495 331.395 570.495 335.787 L 570.495 335.787 L 570.495 352.135 L 570.495 352.135 Q 570.495 366.409 571.105 374.217 Z  M 631.373 310.899 L 631.373 310.899 L 631.373 310.899 Q 633.325 310.289 635.887 310.289 L 635.887 310.289 L 635.887 310.289 Q 638.937 310.289 640.035 311.387 L 640.035 311.387 L 640.035 311.387 Q 641.133 312.485 641.133 315.535 L 641.133 315.535 L 641.133 315.535 Q 641.133 325.783 634.179 342.985 L 634.179 342.985 L 634.179 342.985 Q 627.225 360.187 619.661 369.459 L 619.661 369.459 L 619.661 369.459 Q 616.855 372.753 615.147 373.607 L 615.147 373.607 L 615.147 373.607 Q 613.439 374.461 610.023 374.461 L 610.023 374.461 L 610.023 374.461 Q 608.559 374.461 607.461 374.217 L 607.461 374.217 L 607.461 374.217 Q 604.289 358.967 596.603 339.264 L 596.603 339.264 L 596.603 339.264 Q 588.917 319.561 583.549 314.437 L 583.549 314.437 L 583.549 314.437 Q 587.453 311.021 591.479 311.021 L 591.479 311.021 L 591.479 311.021 Q 593.309 311.021 594.529 312.119 L 594.529 312.119 L 594.529 312.119 Q 595.749 313.217 597.335 316.267 L 597.335 316.267 L 597.335 316.267 Q 600.873 323.709 605.997 338.654 L 605.997 338.654 L 605.997 338.654 Q 611.121 353.599 614.049 364.335 L 614.049 364.335 L 614.049 364.335 Q 620.637 355.917 626.188 340.789 L 626.188 340.789 L 626.188 340.789 Q 631.739 325.661 631.739 314.559 L 631.739 314.559 L 631.739 314.559 Q 631.739 312.363 631.373 310.899 Z " fill="rgb(113,113,113)"/><clipPath id="_clipPath_UqddBYOSxtgLEm4rtd5jA9LuF7kigKwf"><rect x="437.93" y="301" width="36.89" height="82" transform="matrix(1,0,0,1,0,0)" fill="rgb(255,255,255)"/></clipPath><g clip-path="url(#_clipPath_UqddBYOSxtgLEm4rtd5jA9LuF7kigKwf)"><linearGradient id="_lgradient_4" x1="0.12486154687665252" y1="0.47694963211062" x2="0.48051187185649646" y2="0.089616462696606" gradientTransform="matrix(62.22,0,0,64.782,443.71,310.218)" gradientUnits="userSpaceOnUse"><stop offset="0%" stop-opacity="1" style="stop-color:rgb(72,79,78)"/><stop offset="100%" stop-opacity="1" style="stop-color:rgb(229,53,171)"/></linearGradient><path d=" M 474.698 375 L 474.698 375 L 474.698 375 Q 460.546 375 452.128 366.216 L 452.128 366.216 L 452.128 366.216 Q 443.71 357.432 443.71 342.67 L 443.71 342.67 L 443.71 342.67 Q 443.71 327.786 452.128 319.002 L 452.128 319.002 L 452.128 319.002 Q 460.546 310.218 474.698 310.218 L 474.698 310.218 L 474.698 310.218 Q 488.972 310.218 497.451 319.002 L 497.451 319.002 L 497.451 319.002 Q 505.93 327.786 505.93 342.67 L 505.93 342.67 L 505.93 342.67 Q 505.93 357.432 497.451 366.216 L 497.451 366.216 L 497.451 366.216 Q 488.972 375 474.698 375 Z  M 496.17 344.378 L 496.17 344.378 L 496.17 344.378 Q 496.17 337.424 494.218 331.446 L 494.218 331.446 L 494.218 331.446 Q 492.266 325.468 487.203 321.198 L 487.203 321.198 L 487.203 321.198 Q 482.14 316.928 474.82 316.928 L 474.82 316.928 L 474.82 316.928 Q 464.938 316.928 459.143 323.394 L 459.143 323.394 L 459.143 323.394 Q 453.348 329.86 453.348 339.864 L 453.348 339.864 L 453.348 339.864 Q 453.348 347.184 455.3 353.406 L 455.3 353.406 L 455.3 353.406 Q 457.252 359.628 462.254 364.02 L 462.254 364.02 L 462.254 364.02 Q 467.256 368.412 474.698 368.412 L 474.698 368.412 L 474.698 368.412 Q 484.946 368.412 490.558 361.763 L 490.558 361.763 L 490.558 361.763 Q 496.17 355.114 496.17 344.378 Z " fill="url(#_lgradient_4)"/></g><clipPath id="_clipPath_ZS125sO2PGcxYNqzlAm57LAtZ3qCu22o"><rect x="438.93" y="342" width="50" height="35" transform="matrix(1,0,0,1,0,0)" fill="rgb(255,255,255)"/></clipPath><g clip-path="url(#_clipPath_ZS125sO2PGcxYNqzlAm57LAtZ3qCu22o)"><clipPath id="_clipPath_2n4UmqA0GcdXGOb0XV9dHsjoBVLVE3TZ"><rect x="441.93" y="304" width="33" height="80" transform="matrix(1,0,0,1,0,0)" fill="rgb(255,255,255)"/></clipPath><g clip-path="url(#_clipPath_2n4UmqA0GcdXGOb0XV9dHsjoBVLVE3TZ)"><linearGradient id="_lgradient_5" x1="0.13438789486718417" y1="0.5165979092947328" x2="0.4805118718564963" y2="0.9435793558928598" gradientTransform="matrix(62.22,0,0,64.782,443.71,310.218)" gradientUnits="userSpaceOnUse"><stop offset="0%" stop-opacity="1" style="stop-color:rgb(72,79,78)"/><stop offset="100%" stop-opacity="1" style="stop-color:rgb(147,213,0)"/></linearGradient><path d=" M 474.698 375 L 474.698 375 L 474.698 375 Q 460.546 375 452.128 366.216 L 452.128 366.216 L 452.128 366.216 Q 443.71 357.432 443.71 342.67 L 443.71 342.67 L 443.71 342.67 Q 443.71 327.786 452.128 319.002 L 452.128 319.002 L 452.128 319.002 Q 460.546 310.218 474.698 310.218 L 474.698 310.218 L 474.698 310.218 Q 488.972 310.218 497.451 319.002 L 497.451 319.002 L 497.451 319.002 Q 505.93 327.786 505.93 342.67 L 505.93 342.67 L 505.93 342.67 Q 505.93 357.432 497.451 366.216 L 497.451 366.216 L 497.451 366.216 Q 488.972 375 474.698 375 Z  M 496.17 344.378 L 496.17 344.378 L 496.17 344.378 Q 496.17 337.424 494.218 331.446 L 494.218 331.446 L 494.218 331.446 Q 492.266 325.468 487.203 321.198 L 487.203 321.198 L 487.203 321.198 Q 482.14 316.928 474.82 316.928 L 474.82 316.928 L 474.82 316.928 Q 464.938 316.928 459.143 323.394 L 459.143 323.394 L 459.143 323.394 Q 453.348 329.86 453.348 339.864 L 453.348 339.864 L 453.348 339.864 Q 453.348 347.184 455.3 353.406 L 455.3 353.406 L 455.3 353.406 Q 457.252 359.628 462.254 364.02 L 462.254 364.02 L 462.254 364.02 Q 467.256 368.412 474.698 368.412 L 474.698 368.412 L 474.698 368.412 Q 484.946 368.412 490.558 361.763 L 490.558 361.763 L 490.558 361.763 Q 496.17 355.114 496.17 344.378 Z " fill="url(#_lgradient_5)"/></g></g><clipPath id="_clipPath_Vbf4tBcKMpB740LEhwQ2GsIa62vV1Dqd"><path d=" M 474.698 375 L 474.698 375 L 474.698 375 Q 460.546 375 452.128 366.216 L 452.128 366.216 L 452.128 366.216 Q 443.71 357.432 443.71 342.67 L 443.71 342.67 L 443.71 342.67 Q 443.71 327.786 452.128 319.002 L 452.128 319.002 L 452.128 319.002 Q 460.546 310.218 474.698 310.218 L 474.698 310.218 L 474.698 310.218 Q 488.972 310.218 497.451 319.002 L 497.451 319.002 L 497.451 319.002 Q 505.93 327.786 505.93 342.67 L 505.93 342.67 L 505.93 342.67 Q 505.93 357.432 497.451 366.216 L 497.451 366.216 L 497.451 366.216 Q 488.972 375 474.698 375 Z  M 496.17 344.378 L 496.17 344.378 L 496.17 344.378 Q 496.17 337.424 494.218 331.446 L 494.218 331.446 L 494.218 331.446 Q 492.266 325.468 487.203 321.198 L 487.203 321.198 L 487.203 321.198 Q 482.14 316.928 474.82 316.928 L 474.82 316.928 L 474.82 316.928 Q 464.938 316.928 459.143 323.394 L 459.143 323.394 L 459.143 323.394 Q 453.348 329.86 453.348 339.864 L 453.348 339.864 L 453.348 339.864 Q 453.348 347.184 455.3 353.406 L 455.3 353.406 L 455.3 353.406 Q 457.252 359.628 462.254 364.02 L 462.254 364.02 L 462.254 364.02 Q 467.256 368.412 474.698 368.412 L 474.698 368.412 L 474.698 368.412 Q 484.946 368.412 490.558 361.763 L 490.558 361.763 L 490.558 361.763 Q 496.17 355.114 496.17 344.378 Z " fill="rgb(255,255,255)"/></clipPath><g clip-path="url(#_clipPath_Vbf4tBcKMpB740LEhwQ2GsIa62vV1Dqd)"><linearGradient id="_lgradient_6" x1="0.020566242052501238" y1="0.6939279064702345" x2="0.6328349745852346" y2="0.03916870365659875" gradientTransform="matrix(37.11,0,0,43,474.82,342)" gradientUnits="userSpaceOnUse"><stop offset="0%" stop-opacity="1" style="stop-color:rgb(147,213,0)"/><stop offset="100%" stop-opacity="1" style="stop-color:rgb(49,120,198)"/></linearGradient><rect x="474.82" y="342" width="37.11" height="43" transform="matrix(1,0,0,1,0,0)" fill="url(#_lgradient_6)"/></g><clipPath id="_clipPath_GcaTMYDXFAraUhY1KS1L0qTDdRoHTDmL"><path d=" M 474.698 375 L 474.698 375 L 474.698 375 Q 460.546 375 452.128 366.216 L 452.128 366.216 L 452.128 366.216 Q 443.71 357.432 443.71 342.67 L 443.71 342.67 L 443.71 342.67 Q 443.71 327.786 452.128 319.002 L 452.128 319.002 L 452.128 319.002 Q 460.546 310.218 474.698 310.218 L 474.698 310.218 L 474.698 310.218 Q 488.972 310.218 497.451 319.002 L 497.451 319.002 L 497.451 319.002 Q 505.93 327.786 505.93 342.67 L 505.93 342.67 L 505.93 342.67 Q 505.93 357.432 497.451 366.216 L 497.451 366.216 L 497.451 366.216 Q 488.972 375 474.698 375 Z  M 496.17 344.378 L 496.17 344.378 L 496.17 344.378 Q 496.17 337.424 494.218 331.446 L 494.218 331.446 L 494.218 331.446 Q 492.266 325.468 487.203 321.198 L 487.203 321.198 L 487.203 321.198 Q 482.14 316.928 474.82 316.928 L 474.82 316.928 L 474.82 316.928 Q 464.938 316.928 459.143 323.394 L 459.143 323.394 L 459.143 323.394 Q 453.348 329.86 453.348 339.864 L 453.348 339.864 L 453.348 339.864 Q 453.348 347.184 455.3 353.406 L 455.3 353.406 L 455.3 353.406 Q 457.252 359.628 462.254 364.02 L 462.254 364.02 L 462.254 364.02 Q 467.256 368.412 474.698 368.412 L 474.698 368.412 L 474.698 368.412 Q 484.946 368.412 490.558 361.763 L 490.558 361.763 L 490.558 361.763 Q 496.17 355.114 496.17 344.378 Z " fill="rgb(255,255,255)"/></clipPath><g clip-path="url(#_clipPath_GcaTMYDXFAraUhY1KS1L0qTDdRoHTDmL)"><linearGradient id="_lgradient_7" x1="0.6328349745852346" y1="0.9013504647438924" x2="0.07913107733823932" y2="0.2634607471556304" gradientTransform="matrix(37.11,0,0,35,474.82,307)" gradientUnits="userSpaceOnUse"><stop offset="0%" stop-opacity="1" style="stop-color:rgb(49,120,198)"/><stop offset="100%" stop-opacity="1" style="stop-color:rgb(229,53,171)"/></linearGradient><rect x="474.82" y="307" width="37.11" height="35" transform="matrix(1,0,0,1,0,0)" fill="url(#_lgradient_7)"/></g></g><g style="isolation:isolate"><g style="isolation:isolate"><g><g><g><rect x="602.427" y="132.278" width="3.822" height="73.751" transform="matrix(-0.866,-0.5,0.5,-0.866,1043.129,617.82)" fill="rgb(229,53,171)"/></g></g><g><g><rect x="583.487" y="195.03" width="73.752" height="3.822" transform="matrix(1,0,0,1,0,0)" fill="rgb(229,53,171)"/></g></g><g><g><rect x="583.049" y="204.261" width="42.597" height="3.822" transform="matrix(-0.866,-0.5,0.5,-0.866,1024.635,686.901)" fill="rgb(229,53,171)"/></g></g><g><g><rect x="615.095" y="148.75" width="42.597" height="3.822" transform="matrix(-0.866,-0.5,0.5,-0.866,1112.19,599.34)" fill="rgb(229,53,171)"/></g></g><g><g><rect x="602.446" y="129.348" width="3.822" height="42.597" transform="matrix(-0.5,-0.866,0.866,-0.5,776.08,749.357)" fill="rgb(229,53,171)"/></g></g><g><g><rect x="599.545" y="167.243" width="73.751" height="3.822" transform="matrix(-0.5,-0.866,0.866,-0.5,808.146,804.885)" fill="rgb(229,53,171)"/></g></g><g><g><rect x="586.412" y="157.106" width="3.822" height="42.598" transform="matrix(1,0,0,1,0,0)" fill="rgb(229,53,171)"/></g></g><g><g><rect x="650.516" y="157.106" width="3.822" height="42.598" transform="matrix(1,0,0,1,0,0)" fill="rgb(229,53,171)"/></g></g><g><g><rect x="634.724" y="187.627" width="3.339" height="37.048" transform="matrix(-0.5,-0.866,0.866,-0.5,776.067,860.357)" fill="rgb(229,53,171)"/></g></g><path d=" M 659.404 200.948 C 657.194 204.793 652.266 206.106 648.421 203.895 C 644.575 201.685 643.263 196.757 645.473 192.912 C 647.684 189.066 652.611 187.754 656.457 189.964 C 660.325 192.198 661.638 197.102 659.404 200.948 Z " fill="rgb(229,53,171)"/><path d=" M 595.254 163.899 C 593.043 167.744 588.116 169.057 584.27 166.846 C 580.425 164.636 579.113 159.708 581.323 155.863 C 583.534 152.018 588.461 150.705 592.306 152.916 C 596.152 155.149 597.464 160.054 595.254 163.899 Z " fill="rgb(229,53,171)"/><path d=" M 581.346 200.948 C 579.136 197.102 580.448 192.198 584.293 189.964 C 588.139 187.754 593.043 189.066 595.277 192.912 C 597.487 196.757 596.175 201.662 592.329 203.895 C 588.461 206.106 583.557 204.793 581.346 200.948 Z " fill="rgb(229,53,171)"/><path d=" M 645.496 163.899 C 643.286 160.054 644.598 155.149 648.444 152.916 C 652.289 150.705 657.194 152.018 659.427 155.863 C 661.638 159.708 660.325 164.613 656.48 166.846 C 652.634 169.057 647.707 167.744 645.496 163.899 Z " fill="rgb(229,53,171)"/><path d=" M 620.375 223.49 C 615.931 223.49 612.339 219.898 612.339 215.454 C 612.339 211.01 615.931 207.418 620.375 207.418 C 624.819 207.418 628.411 211.01 628.411 215.454 C 628.411 219.875 624.819 223.49 620.375 223.49 Z " fill="rgb(229,53,171)"/><path d=" M 620.375 149.393 C 615.931 149.393 612.339 145.801 612.339 141.357 C 612.339 136.913 615.931 133.32 620.375 133.32 C 624.819 133.32 628.411 136.913 628.411 141.357 C 628.411 145.801 624.819 149.393 620.375 149.393 Z " fill="rgb(229,53,171)"/></g><path d=" M 595.419 250.263 L 595.419 250.263 L 595.419 250.263 Q 595.419 250.911 594.393 251.442 L 594.393 251.442 L 594.393 251.442 Q 593.367 251.973 591.855 251.973 L 591.855 251.973 L 591.855 251.973 Q 589.317 251.973 587.787 250.272 L 587.787 250.272 L 587.787 250.272 Q 586.257 248.571 586.257 245.817 L 586.257 245.817 L 586.257 245.817 Q 586.257 242.937 587.787 241.308 L 587.787 241.308 L 587.787 241.308 Q 589.317 239.679 591.927 239.679 L 591.927 239.679 L 591.927 239.679 Q 593.331 239.679 594.285 240.246 L 594.285 240.246 L 594.285 240.246 Q 595.239 240.813 595.239 241.641 L 595.239 241.641 L 595.239 241.641 Q 595.239 242.379 594.213 242.541 L 594.213 242.541 L 594.213 242.541 Q 593.871 241.659 593.133 241.218 L 593.133 241.218 L 593.133 241.218 Q 592.395 240.777 591.567 240.777 L 591.567 240.777 L 591.567 240.777 Q 589.875 240.777 588.804 242.118 L 588.804 242.118 L 588.804 242.118 Q 587.733 243.459 587.733 245.457 L 587.733 245.457 L 587.733 245.457 Q 587.733 247.761 588.813 249.318 L 588.813 249.318 L 588.813 249.318 Q 589.893 250.875 591.819 250.875 L 591.819 250.875 L 591.819 250.875 Q 593.259 250.875 594.141 250.011 L 594.141 250.011 L 594.141 250.011 Q 594.105 247.761 594.015 246.375 L 594.015 246.375 L 594.015 246.375 Q 594.321 246.321 594.663 246.321 L 594.663 246.321 L 594.663 246.321 Q 595.545 246.321 595.545 247.005 L 595.545 247.005 L 595.491 248.157 L 595.491 248.157 Q 595.419 249.309 595.419 250.263 Z  M 603.465 250.533 L 603.465 250.533 L 603.465 250.533 Q 603.861 250.929 604.329 250.929 L 604.329 250.929 L 604.329 250.929 Q 604.419 250.929 604.707 250.893 L 604.707 250.893 L 604.707 250.893 Q 604.833 251.145 604.833 251.361 L 604.833 251.361 L 604.833 251.361 Q 604.833 251.919 603.663 251.919 L 603.663 251.919 L 603.663 251.919 Q 603.141 251.919 602.655 251.532 L 602.655 251.532 L 602.655 251.532 Q 602.169 251.145 601.719 250.416 L 601.719 250.416 L 601.719 250.416 Q 601.269 249.687 601.026 249.192 L 601.026 249.192 L 601.026 249.192 Q 600.783 248.697 600.441 247.923 L 600.441 247.923 L 600.441 247.923 Q 600.099 247.851 600.099 247.563 L 600.099 247.563 L 600.099 247.563 Q 600.099 247.383 600.225 247.023 L 600.225 247.023 L 600.225 247.023 Q 600.621 247.113 600.909 247.113 L 600.909 247.113 L 600.909 247.113 Q 601.737 247.113 602.259 246.6 L 602.259 246.6 L 602.259 246.6 Q 602.781 246.087 602.781 245.205 L 602.781 245.205 L 602.781 245.205 Q 602.781 244.161 602.205 243.747 L 602.205 243.747 L 602.205 243.747 Q 601.629 243.333 600.441 243.333 L 600.441 243.333 L 600.441 243.333 Q 600.333 243.333 599.361 243.387 L 599.361 243.387 L 599.361 243.387 Q 599.433 244.215 599.433 246.213 L 599.433 246.213 L 599.433 248.985 L 599.433 248.985 Q 599.433 250.857 599.703 251.739 L 599.703 251.739 L 599.703 251.739 Q 599.397 251.829 598.911 251.829 L 598.911 251.829 L 598.911 251.829 Q 598.425 251.829 598.254 251.649 L 598.254 251.649 L 598.254 251.649 Q 598.083 251.469 598.083 251.037 L 598.083 251.037 L 598.083 251.037 Q 598.083 250.821 598.101 249.939 L 598.101 249.939 L 598.101 249.939 Q 598.119 249.057 598.119 248.553 L 598.119 248.553 L 598.119 245.745 L 598.119 245.745 Q 598.119 243.765 597.921 242.523 L 597.921 242.523 L 597.921 242.523 Q 598.893 242.361 600.189 242.361 L 600.189 242.361 L 600.189 242.361 Q 604.221 242.361 604.221 245.187 L 604.221 245.187 L 604.221 245.187 Q 604.221 246.303 603.582 247.005 L 603.582 247.005 L 603.582 247.005 Q 602.943 247.707 601.881 247.941 L 601.881 247.941 L 601.881 247.941 Q 602.979 250.047 603.465 250.533 Z  M 610.971 247.995 L 610.971 247.995 L 610.971 247.995 Q 610.629 247.185 609.513 244.161 L 609.513 244.161 L 609.513 244.161 Q 608.613 246.753 608.091 247.977 L 608.091 247.977 L 608.091 247.977 Q 609.171 248.013 609.747 248.013 L 609.747 248.013 L 609.747 248.013 Q 610.593 248.013 610.971 247.995 Z  M 609.459 248.967 L 609.459 248.967 L 609.459 248.967 Q 609.081 248.967 607.713 248.931 L 607.713 248.931 L 607.713 248.931 Q 607.623 249.147 607.326 249.885 L 607.326 249.885 L 607.326 249.885 Q 607.029 250.623 606.849 251.118 L 606.849 251.118 L 606.849 251.118 Q 606.669 251.613 606.543 252.081 L 606.543 252.081 L 606.543 252.081 Q 605.481 251.937 605.481 251.523 L 605.481 251.523 L 605.481 251.523 Q 605.481 251.343 605.652 250.929 L 605.652 250.929 L 605.652 250.929 Q 605.823 250.515 606.246 249.552 L 606.246 249.552 L 606.246 249.552 Q 606.669 248.589 607.047 247.617 L 607.047 247.617 L 607.047 247.617 Q 608.451 243.999 608.883 242.541 L 608.883 242.541 L 608.883 242.541 Q 609.171 242.487 609.549 242.487 L 609.549 242.487 L 609.549 242.487 Q 609.945 242.487 610.107 242.604 L 610.107 242.604 L 610.107 242.604 Q 610.269 242.721 610.467 243.243 L 610.467 243.243 L 610.467 243.243 Q 610.611 243.621 611.25 245.34 L 611.25 245.34 L 611.25 245.34 Q 611.889 247.059 612.249 247.977 L 612.249 247.977 L 612.249 247.977 Q 613.113 250.101 613.941 251.667 L 613.941 251.667 L 613.941 251.667 Q 613.437 251.919 613.131 251.919 L 613.131 251.919 L 613.131 251.919 Q 612.591 251.919 612.393 251.559 L 612.393 251.559 L 612.393 251.559 Q 612.285 251.307 611.331 248.931 L 611.331 248.931 L 611.331 248.931 Q 609.783 248.967 609.459 248.967 Z  M 618.117 247.473 L 618.117 247.473 L 618.117 247.473 Q 619.053 247.473 619.575 246.942 L 619.575 246.942 L 619.575 246.942 Q 620.097 246.411 620.097 245.511 L 620.097 245.511 L 620.097 245.511 Q 620.097 244.269 619.512 243.801 L 619.512 243.801 L 619.512 243.801 Q 618.927 243.333 617.685 243.333 L 617.685 243.333 L 617.685 243.333 Q 617.613 243.333 616.695 243.387 L 616.695 243.387 L 616.695 243.387 Q 616.749 244.575 616.749 246.105 L 616.749 246.105 L 616.749 247.185 L 616.749 247.185 Q 617.325 247.473 618.117 247.473 Z  M 615.435 248.553 L 615.435 248.553 L 615.435 245.745 L 615.435 245.745 Q 615.435 243.801 615.255 242.523 L 615.255 242.523 L 615.255 242.523 Q 616.227 242.361 617.505 242.361 L 617.505 242.361 L 617.505 242.361 Q 621.537 242.361 621.537 245.421 L 621.537 245.421 L 621.537 245.421 Q 621.537 246.915 620.628 247.689 L 620.628 247.689 L 620.628 247.689 Q 619.719 248.463 618.495 248.463 L 618.495 248.463 L 618.495 248.463 Q 617.433 248.463 616.749 248.013 L 616.749 248.013 L 616.749 249.003 L 616.749 249.003 Q 616.749 250.857 617.037 251.739 L 617.037 251.739 L 617.037 251.739 Q 616.713 251.829 616.245 251.829 L 616.245 251.829 L 616.245 251.829 Q 615.759 251.829 615.588 251.649 L 615.588 251.649 L 615.588 251.649 Q 615.417 251.469 615.417 251.037 L 615.417 251.037 L 615.417 251.037 Q 615.417 250.821 615.426 249.939 L 615.426 249.939 L 615.426 249.939 Q 615.435 249.057 615.435 248.553 Z  M 623.751 248.553 L 623.751 248.553 L 623.751 245.745 L 623.751 245.745 Q 623.751 243.873 623.643 242.505 L 623.643 242.505 L 623.643 242.505 Q 623.967 242.451 624.327 242.451 L 624.327 242.451 L 624.327 242.451 Q 625.173 242.451 625.173 242.991 L 625.173 242.991 L 625.173 242.991 Q 625.173 243.063 625.137 243.567 L 625.137 243.567 L 625.137 243.567 Q 625.101 244.071 625.074 244.827 L 625.074 244.827 L 625.074 244.827 Q 625.047 245.583 625.047 246.267 L 625.047 246.267 L 625.047 246.267 Q 625.803 246.285 627.315 246.285 L 627.315 246.285 L 627.315 246.285 Q 628.773 246.285 629.511 246.267 L 629.511 246.267 L 629.511 245.691 L 629.511 245.691 Q 629.493 243.801 629.403 242.505 L 629.403 242.505 L 629.403 242.505 Q 629.727 242.451 630.087 242.451 L 630.087 242.451 L 630.087 242.451 Q 630.933 242.451 630.933 242.991 L 630.933 242.991 L 630.933 242.991 Q 630.933 243.063 630.897 243.549 L 630.897 243.549 L 630.897 243.549 Q 630.861 244.035 630.834 244.755 L 630.834 244.755 L 630.834 244.755 Q 630.807 245.475 630.807 246.123 L 630.807 246.123 L 630.807 248.949 L 630.807 248.949 Q 630.807 250.839 631.095 251.721 L 631.095 251.721 L 631.095 251.721 Q 630.825 251.829 630.303 251.829 L 630.303 251.829 L 630.303 251.829 Q 629.817 251.829 629.646 251.649 L 629.646 251.649 L 629.646 251.649 Q 629.475 251.469 629.475 251.037 L 629.475 251.037 L 629.475 251.037 Q 629.475 250.821 629.493 249.939 L 629.493 249.939 L 629.493 249.939 Q 629.511 249.057 629.511 248.553 L 629.511 248.553 L 629.511 247.221 L 629.511 247.221 Q 628.755 247.239 627.297 247.239 L 627.297 247.239 L 627.297 247.239 Q 625.785 247.239 625.047 247.221 L 625.047 247.221 L 625.047 248.949 L 625.047 248.949 Q 625.047 250.839 625.335 251.721 L 625.335 251.721 L 625.335 251.721 Q 625.065 251.829 624.543 251.829 L 624.543 251.829 L 624.543 251.829 Q 624.057 251.829 623.886 251.649 L 623.886 251.649 L 623.886 251.649 Q 623.715 251.469 623.715 251.037 L 623.715 251.037 L 623.715 251.037 Q 623.715 250.821 623.733 249.939 L 623.733 249.939 L 623.733 249.939 Q 623.751 249.057 623.751 248.553 Z  M 642.975 246.159 L 642.975 246.159 L 642.975 246.159 Q 642.975 245.151 642.75 244.233 L 642.75 244.233 L 642.75 244.233 Q 642.525 243.315 642.075 242.523 L 642.075 242.523 L 642.075 242.523 Q 641.625 241.731 640.815 241.254 L 640.815 241.254 L 640.815 241.254 Q 640.005 240.777 638.961 240.777 L 638.961 240.777 L 638.961 240.777 Q 637.107 240.777 636.009 242.046 L 636.009 242.046 L 636.009 242.046 Q 634.911 243.315 634.911 245.277 L 634.911 245.277 L 634.911 245.277 Q 634.911 246.339 635.136 247.293 L 635.136 247.293 L 635.136 247.293 Q 635.361 248.247 635.811 249.075 L 635.811 249.075 L 635.811 249.075 Q 636.261 249.903 637.062 250.389 L 637.062 250.389 L 637.062 250.389 Q 637.863 250.875 638.925 250.875 L 638.925 250.875 L 638.925 250.875 Q 640.869 250.875 641.922 249.57 L 641.922 249.57 L 641.922 249.57 Q 642.975 248.265 642.975 246.159 Z  M 638.403 251.955 L 638.403 251.955 L 638.403 251.955 Q 636.117 251.775 634.776 250.128 L 634.776 250.128 L 634.776 250.128 Q 633.435 248.481 633.435 245.835 L 633.435 245.835 L 633.435 245.835 Q 633.435 243.009 634.929 241.344 L 634.929 241.344 L 634.929 241.344 Q 636.423 239.679 638.943 239.679 L 638.943 239.679 L 638.943 239.679 Q 641.481 239.679 642.984 241.344 L 642.984 241.344 L 642.984 241.344 Q 644.487 243.009 644.487 245.835 L 644.487 245.835 L 644.487 245.835 Q 644.487 248.463 643.146 250.101 L 643.146 250.101 L 643.146 250.101 Q 641.805 251.739 639.519 251.937 L 639.519 251.937 L 639.519 251.937 Q 639.735 252.729 640.284 253.125 L 640.284 253.125 L 640.284 253.125 Q 640.833 253.521 641.571 253.521 L 641.571 253.521 L 641.571 253.521 Q 642.291 253.521 642.669 253.377 L 642.669 253.377 L 642.669 253.377 Q 643.047 253.233 643.551 252.837 L 643.551 252.837 L 643.551 252.837 Q 643.731 252.945 643.902 253.215 L 643.902 253.215 L 643.902 253.215 Q 644.073 253.485 644.073 253.665 L 644.073 253.665 L 644.073 253.665 Q 644.073 254.115 643.344 254.367 L 643.344 254.367 L 643.344 254.367 Q 642.615 254.619 641.697 254.619 L 641.697 254.619 L 641.697 254.619 Q 640.383 254.619 639.51 253.899 L 639.51 253.899 L 639.51 253.899 Q 638.637 253.179 638.403 251.955 Z  M 646.683 247.761 L 646.683 247.761 L 646.683 244.035 L 646.683 244.035 Q 646.683 241.497 646.557 239.859 L 646.557 239.859 L 646.557 239.859 Q 646.863 239.805 647.295 239.805 L 647.295 239.805 L 647.295 239.805 Q 648.177 239.805 648.177 240.489 L 648.177 240.489 L 648.177 240.489 Q 648.177 240.597 648.141 241.218 L 648.141 241.218 L 648.141 241.218 Q 648.105 241.839 648.069 242.766 L 648.069 242.766 L 648.069 242.766 Q 648.033 243.693 648.033 244.521 L 648.033 244.521 L 648.033 246.141 L 648.033 246.141 Q 648.033 249.885 648.159 250.677 L 648.159 250.677 L 648.159 250.677 Q 648.915 250.713 649.347 250.713 L 649.347 250.713 L 649.347 250.713 Q 652.155 250.713 652.965 250.299 L 652.965 250.299 L 652.965 250.299 Q 653.091 250.677 653.091 251.091 L 653.091 251.091 L 653.091 251.091 Q 653.091 251.415 652.929 251.559 L 652.929 251.559 L 652.929 251.559 Q 652.623 251.829 650.175 251.829 L 650.175 251.829 L 650.175 251.829 Q 648.015 251.829 647.475 251.793 L 647.475 251.793 L 647.475 251.793 Q 646.989 251.775 646.818 251.541 L 646.818 251.541 L 646.818 251.541 Q 646.647 251.307 646.647 250.767 L 646.647 250.767 L 646.647 250.767 Q 646.647 250.479 646.665 249.435 L 646.665 249.435 L 646.665 249.435 Q 646.683 248.391 646.683 247.761 Z " fill="rgb(113,113,113)"/></g><g style="isolation:isolate"><path d=" M 490.366 246.969 L 490.366 246.969 L 490.366 246.969 Q 489.754 245.367 488.512 241.551 L 488.512 241.551 L 488.512 241.551 Q 488.35 241.965 487.684 243.855 L 487.684 243.855 L 487.684 243.855 Q 487.018 245.745 486.514 246.969 L 486.514 246.969 L 486.514 246.969 Q 487.918 247.005 488.71 247.005 L 488.71 247.005 L 488.71 247.005 Q 489.826 247.005 490.366 246.969 Z  M 488.332 248.067 L 488.332 248.067 L 488.332 248.067 Q 487.864 248.067 486.064 248.031 L 486.064 248.031 L 486.064 248.031 Q 484.858 251.073 484.552 252.171 L 484.552 252.171 L 484.552 252.171 Q 483.958 252.045 483.715 251.883 L 483.715 251.883 L 483.715 251.883 Q 483.472 251.721 483.472 251.451 L 483.472 251.451 L 483.472 251.451 Q 483.472 251.235 484.237 249.435 L 484.237 249.435 L 484.237 249.435 Q 485.002 247.635 486.1 244.854 L 486.1 244.854 L 486.1 244.854 Q 487.198 242.073 487.828 239.913 L 487.828 239.913 L 487.828 239.913 Q 488.17 239.859 488.584 239.859 L 488.584 239.859 L 488.584 239.859 Q 489.034 239.859 489.214 240.012 L 489.214 240.012 L 489.214 240.012 Q 489.394 240.165 489.592 240.813 L 489.592 240.813 L 489.592 240.813 Q 490.726 244.467 491.608 246.753 L 491.608 246.753 L 491.608 246.753 Q 493.012 250.425 493.624 251.613 L 493.624 251.613 L 493.624 251.613 Q 493.12 251.973 492.76 251.973 L 492.76 251.973 L 492.76 251.973 Q 492.184 251.973 491.986 251.487 L 491.986 251.487 L 491.986 251.487 Q 491.644 250.605 490.744 248.031 L 490.744 248.031 L 490.744 248.031 Q 488.728 248.067 488.332 248.067 Z  M 497.872 246.321 L 497.872 246.321 L 497.872 246.321 Q 499.096 246.321 499.789 245.61 L 499.789 245.61 L 499.789 245.61 Q 500.482 244.899 500.482 243.693 L 500.482 243.693 L 500.482 243.693 Q 500.482 242.037 499.708 241.407 L 499.708 241.407 L 499.708 241.407 Q 498.934 240.777 497.296 240.777 L 497.296 240.777 L 497.296 240.777 Q 496.828 240.777 496 240.849 L 496 240.849 L 496 240.849 Q 496.072 241.893 496.072 244.521 L 496.072 244.521 L 496.072 245.871 L 496.072 245.871 Q 496.864 246.321 497.872 246.321 Z  M 494.722 247.635 L 494.722 247.635 L 494.722 244.035 L 494.722 244.035 Q 494.722 241.551 494.488 239.895 L 494.488 239.895 L 494.488 239.895 Q 495.82 239.679 497.17 239.679 L 497.17 239.679 L 497.17 239.679 Q 501.994 239.679 501.994 243.567 L 501.994 243.567 L 501.994 243.567 Q 501.994 245.439 500.869 246.429 L 500.869 246.429 L 500.869 246.429 Q 499.744 247.419 498.232 247.419 L 498.232 247.419 L 498.232 247.419 Q 496.954 247.419 496.072 246.843 L 496.072 246.843 L 496.072 248.139 L 496.072 248.139 Q 496.072 250.569 496.414 251.703 L 496.414 251.703 L 496.414 251.703 Q 496.09 251.847 495.568 251.847 L 495.568 251.847 L 495.568 251.847 Q 495.046 251.847 494.866 251.613 L 494.866 251.613 L 494.866 251.613 Q 494.686 251.379 494.686 250.821 L 494.686 250.821 L 494.686 250.821 Q 494.686 250.533 494.704 249.399 L 494.704 249.399 L 494.704 249.399 Q 494.722 248.265 494.722 247.635 Z  M 503.686 247.635 L 503.686 247.635 L 503.686 244.035 L 503.686 244.035 Q 503.686 241.497 503.56 239.859 L 503.56 239.859 L 503.56 239.859 Q 503.866 239.805 504.298 239.805 L 504.298 239.805 L 504.298 239.805 Q 505.18 239.805 505.18 240.489 L 505.18 240.489 L 505.18 240.489 Q 505.18 240.597 505.144 241.218 L 505.144 241.218 L 505.144 241.218 Q 505.108 241.839 505.072 242.766 L 505.072 242.766 L 505.072 242.766 Q 505.036 243.693 505.036 244.521 L 505.036 244.521 L 505.036 248.139 L 505.036 248.139 Q 505.036 250.569 505.378 251.703 L 505.378 251.703 L 505.378 251.703 Q 505.054 251.847 504.532 251.847 L 504.532 251.847 L 504.532 251.847 Q 504.01 251.847 503.83 251.613 L 503.83 251.613 L 503.83 251.613 Q 503.65 251.379 503.65 250.821 L 503.65 250.821 L 503.65 250.821 Q 503.65 250.533 503.668 249.399 L 503.668 249.399 L 503.668 249.399 Q 503.686 248.265 503.686 247.635 Z  M 446.14 251.973 L 446.14 251.973 L 446.14 251.973 Q 443.62 251.973 442.126 250.299 L 442.126 250.299 L 442.126 250.299 Q 440.632 248.625 440.632 245.835 L 440.632 245.835 L 440.632 245.835 Q 440.632 243.009 442.126 241.344 L 442.126 241.344 L 442.126 241.344 Q 443.62 239.679 446.14 239.679 L 446.14 239.679 L 446.14 239.679 Q 448.678 239.679 450.181 241.344 L 450.181 241.344 L 450.181 241.344 Q 451.684 243.009 451.684 245.835 L 451.684 245.835 L 451.684 245.835 Q 451.684 248.625 450.181 250.299 L 450.181 250.299 L 450.181 250.299 Q 448.678 251.973 446.14 251.973 Z  M 450.172 246.159 L 450.172 246.159 L 450.172 246.159 Q 450.172 245.151 449.947 244.233 L 449.947 244.233 L 449.947 244.233 Q 449.722 243.315 449.272 242.523 L 449.272 242.523 L 449.272 242.523 Q 448.822 241.731 448.012 241.254 L 448.012 241.254 L 448.012 241.254 Q 447.202 240.777 446.158 240.777 L 446.158 240.777 L 446.158 240.777 Q 444.304 240.777 443.206 242.046 L 443.206 242.046 L 443.206 242.046 Q 442.108 243.315 442.108 245.277 L 442.108 245.277 L 442.108 245.277 Q 442.108 246.339 442.333 247.293 L 442.333 247.293 L 442.333 247.293 Q 442.558 248.247 443.008 249.075 L 443.008 249.075 L 443.008 249.075 Q 443.458 249.903 444.259 250.389 L 444.259 250.389 L 444.259 250.389 Q 445.06 250.875 446.122 250.875 L 446.122 250.875 L 446.122 250.875 Q 448.066 250.875 449.119 249.57 L 449.119 249.57 L 449.119 249.57 Q 450.172 248.265 450.172 246.159 Z  M 456.904 247.473 L 456.904 247.473 L 456.904 247.473 Q 457.84 247.473 458.362 246.942 L 458.362 246.942 L 458.362 246.942 Q 458.884 246.411 458.884 245.511 L 458.884 245.511 L 458.884 245.511 Q 458.884 244.269 458.299 243.801 L 458.299 243.801 L 458.299 243.801 Q 457.714 243.333 456.472 243.333 L 456.472 243.333 L 456.472 243.333 Q 456.4 243.333 455.482 243.387 L 455.482 243.387 L 455.482 243.387 Q 455.536 244.575 455.536 246.105 L 455.536 246.105 L 455.536 247.185 L 455.536 247.185 Q 456.112 247.473 456.904 247.473 Z  M 454.222 248.553 L 454.222 248.553 L 454.222 245.745 L 454.222 245.745 Q 454.222 243.801 454.042 242.523 L 454.042 242.523 L 454.042 242.523 Q 455.014 242.361 456.292 242.361 L 456.292 242.361 L 456.292 242.361 Q 460.324 242.361 460.324 245.421 L 460.324 245.421 L 460.324 245.421 Q 460.324 246.915 459.415 247.689 L 459.415 247.689 L 459.415 247.689 Q 458.506 248.463 457.282 248.463 L 457.282 248.463 L 457.282 248.463 Q 456.22 248.463 455.536 248.013 L 455.536 248.013 L 455.536 249.003 L 455.536 249.003 Q 455.536 250.857 455.824 251.739 L 455.824 251.739 L 455.824 251.739 Q 455.5 251.829 455.032 251.829 L 455.032 251.829 L 455.032 251.829 Q 454.546 251.829 454.375 251.649 L 454.375 251.649 L 454.375 251.649 Q 454.204 251.469 454.204 251.037 L 454.204 251.037 L 454.204 251.037 Q 454.204 250.821 454.213 249.939 L 454.213 249.939 L 454.213 249.939 Q 454.222 249.057 454.222 248.553 Z  M 463.726 243.513 L 463.726 243.513 L 463.726 243.513 Q 463.78 243.945 463.78 246.303 L 463.78 246.303 L 464.932 246.303 L 464.932 246.303 Q 466.138 246.303 466.66 246.249 L 466.66 246.249 L 466.66 246.249 Q 466.714 246.393 466.714 246.645 L 466.714 246.645 L 466.714 246.645 Q 466.714 247.005 466.561 247.14 L 466.561 247.14 L 466.561 247.14 Q 466.408 247.275 466.084 247.293 L 466.084 247.293 L 466.084 247.293 Q 465.706 247.311 465.058 247.311 L 465.058 247.311 L 463.78 247.311 L 463.78 247.311 Q 463.78 250.209 463.888 250.803 L 463.888 250.803 L 463.888 250.803 Q 464.536 250.839 464.932 250.839 L 464.932 250.839 L 464.932 250.839 Q 467.308 250.839 468.046 250.515 L 468.046 250.515 L 468.046 250.515 Q 468.172 250.839 468.172 251.199 L 468.172 251.199 L 468.172 251.199 Q 468.172 251.487 468.028 251.613 L 468.028 251.613 L 468.028 251.613 Q 467.758 251.811 465.58 251.811 L 465.58 251.811 L 465.58 251.811 Q 465.148 251.811 464.194 251.802 L 464.194 251.802 L 464.194 251.802 Q 463.24 251.793 463.204 251.793 L 463.204 251.793 L 463.204 251.793 Q 462.754 251.775 462.601 251.595 L 462.601 251.595 L 462.601 251.595 Q 462.448 251.415 462.448 251.001 L 462.448 251.001 L 462.448 251.001 Q 462.448 250.749 462.466 249.894 L 462.466 249.894 L 462.466 249.894 Q 462.484 249.039 462.484 248.553 L 462.484 248.553 L 462.484 245.799 L 462.484 245.799 Q 462.484 243.747 462.268 242.577 L 462.268 242.577 L 462.268 242.577 Q 464.032 242.451 465.562 242.451 L 465.562 242.451 L 465.562 242.451 Q 467.74 242.451 468.01 242.667 L 468.01 242.667 L 468.01 242.667 Q 468.154 242.793 468.154 243.081 L 468.154 243.081 L 468.154 243.081 Q 468.154 243.441 468.028 243.765 L 468.028 243.765 L 468.028 243.765 Q 467.164 243.477 465.328 243.477 L 465.328 243.477 L 465.328 243.477 Q 464.626 243.477 463.726 243.513 Z  M 477.586 251.793 L 477.586 251.793 L 477.586 251.793 Q 477.226 251.829 477.028 251.829 L 477.028 251.829 L 477.028 251.829 Q 476.416 251.829 476.164 251.469 L 476.164 251.469 L 476.164 251.469 Q 475.624 250.641 474.13 248.157 L 474.13 248.157 L 474.13 248.157 Q 472.636 245.673 471.682 244.287 L 471.682 244.287 L 471.682 244.287 Q 471.718 245.637 471.718 248.535 L 471.718 248.535 L 471.718 248.535 Q 471.718 250.911 472.006 251.739 L 472.006 251.739 L 472.006 251.739 Q 471.682 251.829 471.376 251.829 L 471.376 251.829 L 471.376 251.829 Q 470.89 251.829 470.728 251.649 L 470.728 251.649 L 470.728 251.649 Q 470.566 251.469 470.566 251.037 L 470.566 251.037 L 470.566 251.037 Q 470.566 250.821 470.575 249.939 L 470.575 249.939 L 470.575 249.939 Q 470.584 249.057 470.584 248.553 L 470.584 248.553 L 470.584 245.745 L 470.584 245.745 Q 470.584 243.405 470.314 242.541 L 470.314 242.541 L 470.314 242.541 Q 470.638 242.433 471.088 242.433 L 471.088 242.433 L 471.088 242.433 Q 471.646 242.433 472.024 242.847 L 472.024 242.847 L 472.024 242.847 Q 472.726 243.567 474.076 245.691 L 474.076 245.691 L 474.076 245.691 Q 475.426 247.815 476.452 249.705 L 476.452 249.705 L 476.452 249.705 Q 476.362 248.409 476.362 245.835 L 476.362 245.835 L 476.362 245.835 Q 476.362 243.891 476.254 242.487 L 476.254 242.487 L 476.254 242.487 Q 476.542 242.451 476.776 242.451 L 476.776 242.451 L 476.776 242.451 Q 477.604 242.451 477.604 242.991 L 477.604 242.991 L 477.604 242.991 Q 477.604 243.063 477.577 243.549 L 477.577 243.549 L 477.577 243.549 Q 477.55 244.035 477.523 244.755 L 477.523 244.755 L 477.523 244.755 Q 477.496 245.475 477.496 246.123 L 477.496 246.123 L 477.496 248.535 L 477.496 248.535 Q 477.496 250.641 477.586 251.793 Z " fill="rgb(113,113,113)"/><g><g><g><path d=" M 454.919 184.556 L 454.837 184.556 L 433.282 184.557 C 433.286 184.663 433.289 184.769 433.294 184.874 C 433.303 185.077 433.317 185.28 433.33 185.483 C 433.336 185.571 433.34 185.658 433.346 185.744 C 433.363 185.979 433.384 186.214 433.405 186.448 C 433.41 186.501 433.414 186.554 433.42 186.606 C 433.444 186.866 433.473 187.126 433.504 187.385 C 433.506 187.411 433.508 187.436 433.512 187.46 C 433.546 187.74 433.582 188.02 433.623 188.298 C 433.623 188.301 433.623 188.305 433.624 188.308 C 433.872 190.033 434.245 191.741 434.742 193.421 C 434.744 193.428 434.747 193.435 434.748 193.442 C 434.825 193.706 434.908 193.969 434.992 194.231 C 434.997 194.246 435.002 194.261 435.007 194.277 C 435.011 194.293 435.016 194.308 435.022 194.323 C 435.098 194.56 435.179 194.795 435.26 195.032 C 435.281 195.091 435.302 195.151 435.323 195.211 C 435.396 195.415 435.47 195.619 435.545 195.823 C 435.581 195.915 435.615 196.007 435.65 196.1 C 435.716 196.269 435.781 196.436 435.848 196.606 C 435.898 196.732 435.951 196.859 436.004 196.986 C 436.058 197.118 436.113 197.249 436.169 197.381 C 436.238 197.543 436.309 197.702 436.38 197.863 C 436.423 197.959 436.466 198.055 436.509 198.149 C 436.597 198.342 436.687 198.534 436.778 198.725 C 436.808 198.787 436.837 198.849 436.867 198.91 C 436.973 199.13 437.082 199.349 437.191 199.566 C 437.21 199.599 437.226 199.632 437.243 199.666 C 437.367 199.906 437.493 200.146 437.622 200.384 C 437.628 200.394 437.634 200.404 437.639 200.416 C 437.666 200.465 437.696 200.513 437.724 200.562 L 456.203 189.43 L 456.272 189.389 C 455.541 187.851 455.087 186.217 454.919 184.556 Z " fill="rgb(147,213,0)"/><path d=" M 434.303 194.479 L 434.31 194.498 L 435.008 194.278 L 434.303 194.479 Z " fill="rgb(147,213,0)"/><path d=" M 460.237 194.489 L 460.184 194.542 L 444.943 209.783 C 445.022 209.857 445.099 209.93 445.179 210.001 C 445.321 210.13 445.467 210.258 445.61 210.384 C 445.685 210.45 445.758 210.517 445.833 210.581 C 446.005 210.73 446.179 210.876 446.353 211.022 C 446.401 211.061 446.447 211.1 446.494 211.139 C 446.69 211.301 446.889 211.46 447.088 211.618 C 447.114 211.638 447.139 211.658 447.165 211.679 C 447.381 211.849 447.599 212.014 447.819 212.181 C 447.829 212.187 447.837 212.193 447.844 212.199 C 448.762 212.885 449.713 213.527 450.695 214.126 C 450.729 214.147 450.762 214.167 450.797 214.188 C 450.983 214.3 451.17 214.411 451.358 214.52 C 451.473 214.586 451.588 214.651 451.703 214.716 C 451.812 214.779 451.92 214.84 452.03 214.9 C 452.228 215.009 452.427 215.116 452.626 215.221 C 452.653 215.235 452.681 215.25 452.709 215.265 C 453.263 215.554 453.827 215.824 454.394 216.083 L 454.394 216.083 L 454.935 214.77 L 462.601 196.154 L 462.629 196.085 C 461.794 195.638 460.992 195.108 460.237 194.489 Z " fill="rgb(77,90,49)"/><path d=" M 458.649 192.971 C 458.485 192.788 458.328 192.6 458.174 192.411 C 458.038 192.243 457.906 192.073 457.779 191.9 C 457.633 191.703 457.49 191.504 457.356 191.301 C 457.219 191.098 457.086 190.892 456.96 190.684 L 438.457 201.83 C 438.742 202.302 439.038 202.762 439.34 203.217 C 439.351 203.232 439.36 203.249 439.371 203.264 L 439.371 203.264 C 439.374 203.27 439.378 203.276 439.381 203.281 C 439.392 203.296 439.401 203.312 439.41 203.327 C 439.412 203.329 439.412 203.33 439.413 203.332 C 439.437 203.368 439.463 203.404 439.487 203.44 C 439.489 203.442 439.49 203.444 439.492 203.447 C 439.492 203.447 439.492 203.447 439.492 203.447 C 439.492 203.448 439.493 203.449 439.493 203.45 C 439.815 203.925 440.145 204.392 440.485 204.848 C 440.492 204.858 440.5 204.867 440.507 204.878 C 440.514 204.887 440.522 204.896 440.529 204.906 C 440.676 205.102 440.825 205.298 440.978 205.492 C 440.998 205.517 441.018 205.542 441.039 205.567 C 441.196 205.767 441.355 205.966 441.517 206.161 C 441.555 206.208 441.595 206.254 441.633 206.301 C 441.78 206.477 441.926 206.65 442.075 206.823 C 442.139 206.897 442.205 206.971 442.27 207.045 C 442.397 207.19 442.524 207.334 442.655 207.477 C 442.726 207.555 442.799 207.634 442.872 207.713 C 442.906 207.748 442.938 207.784 442.971 207.819 C 443.066 207.921 443.161 208.024 443.257 208.126 C 443.296 208.166 443.335 208.206 443.375 208.246 C 443.543 208.422 443.713 208.597 443.886 208.77 L 459.15 193.506 C 458.976 193.332 458.812 193.152 458.649 192.971 Z " fill="rgb(107,164,58)"/><path d=" M 478.882 194.482 C 478.714 194.617 478.544 194.75 478.372 194.877 L 478.41 194.94 L 489.539 213.414 C 490.054 213.077 490.563 212.73 491.061 212.365 C 492.138 211.571 493.181 210.711 494.185 209.783 L 478.942 194.541 L 478.882 194.482 Z " fill="rgb(77,90,49)"/><path d=" M 488.133 214.294 C 488.141 214.289 488.149 214.285 488.157 214.28 L 488.157 214.279 C 488.148 214.284 488.14 214.289 488.133 214.294 L 488.133 214.294 Z " fill="rgb(147,213,0)"/><path d=" M 488.122 214.3 L 488.122 214.3 L 488.122 214.3 L 488.121 214.3 L 488.122 214.3 Z " fill="rgb(147,213,0)"/><path d=" M 488.157 214.279 L 488.157 214.28 C 488.206 214.253 488.255 214.227 488.303 214.199 L 488.3 214.194 C 488.252 214.222 488.204 214.251 488.157 214.279 Z " fill="rgb(147,213,0)"/><path d=" M 488.126 214.297 L 488.133 214.294 L 488.132 214.294 L 488.126 214.297 Z " fill="rgb(147,213,0)"/><path d=" M 488.121 214.3 L 488.122 214.3 L 488.095 214.254 L 488.121 214.3 Z " fill="rgb(147,213,0)"/><path d=" M 488.133 214.294 L 488.133 214.294 C 488.141 214.289 488.149 214.285 488.157 214.28 L 488.157 214.28 C 488.149 214.285 488.14 214.289 488.133 214.294 Z " fill="rgb(147,213,0)"/><path d=" M 488.112 214.306 L 488.112 214.306 L 488.118 214.302 L 488.118 214.302 L 488.112 214.306 Z " fill="rgb(147,213,0)"/><path d=" M 488.121 214.3 L 488.118 214.302 L 488.118 214.302 L 488.122 214.3 L 488.121 214.3 Z " fill="rgb(147,213,0)"/><path d=" M 488.126 214.297 C 488.125 214.298 488.123 214.299 488.122 214.3 L 488.122 214.3 C 488.125 214.298 488.129 214.296 488.133 214.294 L 488.133 214.294 C 488.13 214.295 488.128 214.296 488.126 214.297 Z " fill="rgb(147,213,0)"/><path d=" M 488.157 214.28 C 488.205 214.252 488.255 214.227 488.302 214.199 C 488.254 214.227 488.205 214.253 488.157 214.28 L 488.157 214.28 Z " fill="rgb(147,213,0)"/><path d=" M 488.302 214.199 L 488.299 214.194 L 488.299 214.194 L 488.302 214.199 Z " fill="rgb(147,213,0)"/><rect x="488.12" y="214.311" width="0" height="0" transform="matrix(1,0,0,1,0,0)" fill="rgb(147,213,0)"/><path d=" M 488.106 214.309 L 488.107 214.309 L 488.107 214.309 L 488.106 214.309 Z " fill="rgb(147,213,0)"/><path d=" M 488.111 214.306 L 488.107 214.309 L 488.107 214.309 L 488.112 214.306 L 488.111 214.306 L 488.111 214.306 Z " fill="rgb(147,213,0)"/><path d=" M 487.921 213.566 L 487.544 212.939 L 477.156 195.695 C 476.945 195.822 476.731 195.936 476.516 196.052 C 476.299 196.168 476.08 196.277 475.859 196.382 C 473.864 197.329 471.703 197.812 469.54 197.812 C 468.123 197.812 466.707 197.607 465.337 197.198 C 465.103 197.129 464.876 197.037 464.645 196.956 C 464.415 196.875 464.181 196.804 463.954 196.711 L 456.294 215.314 L 455.993 216.044 L 455.736 216.668 L 455.735 216.671 C 455.755 216.679 455.775 216.686 455.795 216.694 C 455.816 216.702 455.837 216.71 455.857 216.718 L 455.858 216.718 C 455.858 216.718 455.859 216.719 455.859 216.719 C 455.864 216.721 455.869 216.722 455.874 216.724 C 456.055 216.797 456.237 216.862 456.419 216.932 C 456.647 217.021 456.875 217.11 457.103 217.194 C 457.219 217.237 457.335 217.286 457.451 217.328 L 457.452 217.328 L 457.452 217.328 C 459.851 218.175 462.335 218.768 464.86 219.101 C 464.958 219.113 465.056 219.127 465.156 219.14 C 465.259 219.152 465.363 219.162 465.466 219.174 C 465.661 219.196 465.855 219.218 466.05 219.237 C 466.098 219.241 466.147 219.245 466.195 219.25 C 466.434 219.272 466.673 219.293 466.912 219.31 C 466.993 219.316 467.075 219.319 467.156 219.325 C 467.366 219.338 467.575 219.352 467.784 219.361 C 467.912 219.369 468.041 219.372 468.169 219.377 C 468.336 219.383 468.501 219.39 468.668 219.394 C 468.907 219.4 469.149 219.402 469.39 219.403 C 469.447 219.403 469.504 219.405 469.561 219.406 C 471.578 219.406 473.594 219.238 475.587 218.904 L 475.587 218.904 C 475.621 218.899 475.654 218.893 475.688 218.888 C 475.899 218.851 476.109 218.812 476.321 218.773 C 476.44 218.75 476.561 218.727 476.68 218.704 C 476.803 218.679 476.927 218.653 477.05 218.627 C 477.255 218.584 477.461 218.54 477.665 218.491 C 477.702 218.484 477.739 218.476 477.777 218.466 C 480.809 217.759 483.736 216.666 486.486 215.219 L 486.487 215.218 L 486.487 215.218 C 486.667 215.123 486.843 215.015 487.022 214.917 C 487.236 214.801 487.449 214.68 487.661 214.558 C 487.808 214.474 487.957 214.396 488.103 214.309 C 488.104 214.309 488.104 214.309 488.104 214.309 C 488.105 214.308 488.107 214.307 488.108 214.306 C 488.108 214.306 488.108 214.306 488.109 214.306 L 488.109 214.306 C 488.111 214.305 488.113 214.303 488.115 214.302 C 488.116 214.301 488.117 214.301 488.118 214.3 L 488.092 214.255 L 488.119 214.3 C 488.12 214.3 488.122 214.298 488.123 214.298 C 488.125 214.297 488.127 214.295 488.129 214.294 C 488.137 214.289 488.145 214.285 488.153 214.28 C 488.201 214.252 488.248 214.223 488.296 214.194 L 488.296 214.194 L 487.921 213.566 Z " fill="rgb(147,213,0)"/><path d=" M 460.245 171.704 C 460.413 171.567 460.583 171.436 460.756 171.308 L 460.718 171.245 L 449.59 152.771 C 449.073 153.109 448.562 153.456 448.064 153.822 C 446.987 154.614 445.946 155.475 444.943 156.4 L 460.186 171.643 L 460.245 171.704 Z " fill="rgb(147,213,0)"/><path d=" M 443.886 157.415 C 443.713 157.588 443.549 157.768 443.38 157.943 C 443.211 158.119 443.039 158.294 442.874 158.473 C 441.748 159.692 440.718 160.968 439.79 162.294 C 439.746 162.357 439.701 162.422 439.657 162.485 C 439.552 162.637 439.449 162.79 439.347 162.942 C 439.241 163.101 439.135 163.262 439.033 163.423 C 438.994 163.481 438.956 163.541 438.919 163.599 C 435.414 169.099 433.535 175.337 433.282 181.628 C 433.272 181.872 433.267 182.116 433.263 182.36 C 433.258 182.604 433.25 182.848 433.25 183.092 L 454.837 183.092 C 454.837 182.847 454.86 182.604 454.872 182.36 C 454.884 182.115 454.888 181.871 454.913 181.628 C 455.192 178.817 456.277 176.072 458.168 173.766 C 458.322 173.579 458.496 173.403 458.66 173.222 C 458.824 173.041 458.977 172.853 459.151 172.678 L 443.886 157.415 Z " fill="rgb(77,90,49)"/><path d=" M 488.428 152.056 C 488.398 152.038 488.368 152.02 488.338 152.003 C 488.149 151.887 487.957 151.775 487.765 151.662 C 487.654 151.598 487.543 151.535 487.431 151.471 C 487.318 151.409 487.207 151.345 487.094 151.283 C 486.899 151.176 486.704 151.072 486.508 150.967 C 486.477 150.952 486.447 150.935 486.416 150.919 C 485.15 150.257 483.85 149.674 482.522 149.169 C 482.489 149.155 482.453 149.142 482.42 149.129 C 482.131 149.021 481.84 148.914 481.548 148.812 C 479.191 147.989 476.752 147.411 474.274 147.086 C 474.173 147.071 474.072 147.057 473.971 147.045 C 473.869 147.032 473.768 147.022 473.668 147.011 C 473.472 146.988 473.277 146.966 473.081 146.947 C 473.027 146.942 472.972 146.938 472.917 146.933 C 472.684 146.911 472.451 146.891 472.22 146.874 C 472.129 146.868 472.038 146.863 471.948 146.857 C 471.748 146.844 471.547 146.83 471.348 146.822 C 471.241 146.817 471.135 146.814 471.03 146.81 L 471.029 168.365 L 471.029 168.449 C 472.139 168.564 473.239 168.801 474.307 169.163 L 490.233 153.238 C 489.64 152.829 489.042 152.43 488.428 152.056 Z " fill="rgb(77,90,49)"/><path d=" M 451.206 152.617 L 450.829 151.99 L 450.829 151.99 L 451.206 152.617 L 451.206 152.617 Z " fill="rgb(107,164,58)"/><path d=" M 450.826 151.987 L 450.829 151.99 L 450.829 151.99 L 450.826 151.987 Z " fill="rgb(107,164,58)"/><path d=" M 468.832 146.794 C 468.588 146.798 468.343 146.799 468.1 146.809 C 466.572 146.871 465.048 147.027 463.536 147.279 C 463.503 147.285 463.47 147.29 463.436 147.296 C 463.225 147.332 463.014 147.371 462.804 147.411 C 462.685 147.433 462.564 147.456 462.445 147.479 C 462.321 147.504 462.197 147.53 462.073 147.557 C 461.868 147.6 461.662 147.644 461.458 147.692 L 461.458 147.692 C 461.421 147.7 461.384 147.709 461.346 147.717 C 458.315 148.424 455.385 149.518 452.635 150.966 C 452.635 150.966 452.635 150.966 452.635 150.966 L 452.635 150.966 C 452.455 151.061 452.28 151.168 452.101 151.266 C 451.888 151.383 451.675 151.504 451.463 151.626 C 451.305 151.717 451.145 151.8 450.989 151.894 C 450.987 151.895 450.985 151.896 450.983 151.897 C 450.983 151.897 450.983 151.897 450.983 151.897 C 450.972 151.904 450.96 151.91 450.95 151.916 C 450.909 151.941 450.867 151.961 450.826 151.986 L 450.828 151.99 L 451.206 152.617 L 451.206 152.617 L 461.971 170.489 C 462.181 170.362 462.396 170.247 462.611 170.132 C 462.827 170.015 463.046 169.906 463.267 169.801 C 464.804 169.069 466.438 168.615 468.099 168.447 C 468.343 168.422 468.587 168.401 468.831 168.389 C 469.075 168.377 469.319 168.364 469.563 168.364 L 469.564 146.777 C 469.32 146.778 469.076 146.788 468.832 146.794 Z " fill="rgb(107,164,58)"/><path d=" M 505.833 181.307 C 505.824 181.113 505.812 180.92 505.798 180.726 C 505.792 180.629 505.787 180.533 505.779 180.435 C 505.763 180.207 505.744 179.979 505.723 179.751 C 505.718 179.692 505.712 179.633 505.707 179.574 C 505.682 179.319 505.655 179.065 505.626 178.811 C 505.623 178.79 505.621 178.77 505.618 178.749 C 505.617 178.74 505.616 178.73 505.615 178.72 C 505.581 178.445 505.545 178.171 505.506 177.897 C 505.505 177.889 505.504 177.879 505.502 177.872 C 505.254 176.151 504.882 174.445 504.387 172.768 C 504.383 172.756 504.38 172.746 504.376 172.735 C 504.298 172.475 504.219 172.216 504.136 171.957 C 504.125 171.923 504.114 171.889 504.103 171.855 C 504.027 171.621 503.949 171.389 503.868 171.156 C 503.846 171.094 503.824 171.031 503.802 170.968 C 503.731 170.767 503.658 170.566 503.583 170.366 C 503.547 170.27 503.511 170.174 503.473 170.08 C 503.41 169.914 503.345 169.748 503.28 169.583 C 503.227 169.451 503.174 169.321 503.12 169.192 C 503.067 169.063 503.013 168.935 502.959 168.807 C 502.888 168.643 502.816 168.479 502.743 168.315 C 502.702 168.224 502.661 168.131 502.619 168.038 C 502.53 167.844 502.439 167.649 502.346 167.455 C 502.318 167.396 502.29 167.337 502.261 167.278 C 502.154 167.056 502.044 166.834 501.933 166.614 C 501.917 166.584 501.901 166.553 501.885 166.523 C 501.76 166.28 501.633 166.037 501.503 165.798 C 501.498 165.789 501.494 165.78 501.489 165.772 C 500.86 164.615 500.17 163.496 499.423 162.421 L 483.492 178.351 C 483.855 179.419 484.091 180.519 484.206 181.629 L 484.291 181.629 L 505.846 181.629 C 505.842 181.52 505.839 181.413 505.833 181.307 Z " fill="rgb(77,90,49)"/><path d=" M 484.29 183.092 C 484.29 183.336 484.267 183.579 484.255 183.824 C 484.243 184.068 484.239 184.313 484.215 184.556 C 483.936 187.367 482.852 190.112 480.96 192.419 C 480.807 192.606 480.633 192.782 480.468 192.963 C 480.305 193.144 480.152 193.332 479.977 193.506 L 495.242 208.77 C 495.415 208.597 495.579 208.417 495.748 208.241 C 495.917 208.065 496.089 207.891 496.254 207.712 C 497.384 206.489 498.416 205.209 499.346 203.878 C 499.383 203.826 499.418 203.774 499.454 203.721 C 499.568 203.558 499.678 203.393 499.789 203.229 C 499.886 203.082 499.984 202.934 500.079 202.786 C 500.126 202.715 500.172 202.641 500.218 202.57 C 503.718 197.073 505.592 190.841 505.844 184.555 C 505.853 184.311 505.858 184.067 505.863 183.823 C 505.868 183.579 505.875 183.335 505.875 183.091 L 484.29 183.091 L 484.29 183.092 Z " fill="rgb(107,164,58)"/></g><path d=" M 512.289 140.367 C 508.339 136.417 501.936 136.417 497.987 140.367 C 494.836 143.517 494.207 148.226 496.083 152.008 L 474.054 174.037 C 470.272 172.162 465.563 172.791 462.412 175.94 C 458.462 179.89 458.463 186.294 462.411 190.243 C 466.362 194.193 472.765 194.191 476.715 190.242 C 479.865 187.092 480.494 182.383 478.618 178.601 L 500.646 156.573 C 504.429 158.449 509.137 157.819 512.288 154.669 C 516.237 150.72 516.237 144.316 512.289 140.367 Z " fill="rgb(66,65,67)"/></g></g></g><g style="isolation:isolate"><path d=" M 323.566 242.199 L 323.566 242.199 L 323.566 242.199 Q 323.26 241.605 322.468 241.218 L 322.468 241.218 L 322.468 241.218 Q 321.676 240.831 320.83 240.831 L 320.83 240.831 L 320.83 240.831 Q 319.912 240.831 319.291 241.335 L 319.291 241.335 L 319.291 241.335 Q 318.67 241.839 318.67 242.811 L 318.67 242.811 L 318.67 242.811 Q 318.67 243.549 319.129 244.026 L 319.129 244.026 L 319.129 244.026 Q 319.588 244.503 320.272 244.692 L 320.272 244.692 L 320.272 244.692 Q 320.956 244.881 321.766 245.151 L 321.766 245.151 L 321.766 245.151 Q 322.576 245.421 323.26 245.709 L 323.26 245.709 L 323.26 245.709 Q 323.944 245.997 324.403 246.699 L 324.403 246.699 L 324.403 246.699 Q 324.862 247.401 324.862 248.445 L 324.862 248.445 L 324.862 248.445 Q 324.862 249.381 324.502 250.092 L 324.502 250.092 L 324.502 250.092 Q 324.142 250.803 323.53 251.199 L 323.53 251.199 L 323.53 251.199 Q 322.918 251.595 322.207 251.784 L 322.207 251.784 L 322.207 251.784 Q 321.496 251.973 320.704 251.973 L 320.704 251.973 L 320.704 251.973 Q 319.3 251.973 318.229 251.478 L 318.229 251.478 L 318.229 251.478 Q 317.158 250.983 317.158 250.281 L 317.158 250.281 L 317.158 250.281 Q 317.158 250.047 317.311 249.858 L 317.311 249.858 L 317.311 249.858 Q 317.464 249.669 317.608 249.579 L 317.608 249.579 L 317.608 249.579 Q 317.752 249.489 318.076 249.327 L 318.076 249.327 L 318.076 249.327 Q 318.418 249.993 319.309 250.416 L 319.309 250.416 L 319.309 250.416 Q 320.2 250.839 321.118 250.839 L 321.118 250.839 L 321.118 250.839 Q 322.126 250.839 322.846 250.29 L 322.846 250.29 L 322.846 250.29 Q 323.566 249.741 323.566 248.715 L 323.566 248.715 L 323.566 248.715 Q 323.566 247.869 322.927 247.374 L 322.927 247.374 L 322.927 247.374 Q 322.288 246.879 321.379 246.627 L 321.379 246.627 L 321.379 246.627 Q 320.47 246.375 319.561 246.069 L 319.561 246.069 L 319.561 246.069 Q 318.652 245.763 318.013 245.034 L 318.013 245.034 L 318.013 245.034 Q 317.374 244.305 317.374 243.099 L 317.374 243.099 L 317.374 243.099 Q 317.374 241.443 318.463 240.561 L 318.463 240.561 L 318.463 240.561 Q 319.552 239.679 321.244 239.679 L 321.244 239.679 L 321.244 239.679 Q 322.486 239.679 323.539 240.111 L 323.539 240.111 L 323.539 240.111 Q 324.592 240.543 324.592 241.299 L 324.592 241.299 L 324.592 241.299 Q 324.592 242.019 323.566 242.199 Z  M 333.466 249.759 L 333.466 249.759 L 333.466 249.759 Q 334.168 250.047 334.168 250.569 L 334.168 250.569 L 334.168 250.569 Q 334.168 251.109 333.322 251.514 L 333.322 251.514 L 333.322 251.514 Q 332.476 251.919 331.198 251.919 L 331.198 251.919 L 331.198 251.919 Q 329.092 251.919 327.814 250.605 L 327.814 250.605 L 327.814 250.605 Q 326.536 249.291 326.536 247.149 L 326.536 247.149 L 326.536 247.149 Q 326.536 244.899 327.805 243.63 L 327.805 243.63 L 327.805 243.63 Q 329.074 242.361 331.27 242.361 L 331.27 242.361 L 331.27 242.361 Q 332.44 242.361 333.232 242.802 L 333.232 242.802 L 333.232 242.802 Q 334.024 243.243 334.024 243.891 L 334.024 243.891 L 334.024 243.891 Q 334.024 244.557 333.034 244.719 L 333.034 244.719 L 333.034 244.719 Q 332.782 244.053 332.197 243.702 L 332.197 243.702 L 332.197 243.702 Q 331.612 243.351 330.964 243.351 L 330.964 243.351 L 330.964 243.351 Q 329.65 243.351 328.804 244.359 L 328.804 244.359 L 328.804 244.359 Q 327.958 245.367 327.958 246.861 L 327.958 246.861 L 327.958 246.861 Q 327.958 248.607 328.804 249.777 L 328.804 249.777 L 328.804 249.777 Q 329.65 250.947 331.18 250.947 L 331.18 250.947 L 331.18 250.947 Q 331.864 250.947 332.485 250.641 L 332.485 250.641 L 332.485 250.641 Q 333.106 250.335 333.466 249.759 Z  M 336.706 248.553 L 336.706 248.553 L 336.706 245.745 L 336.706 245.745 Q 336.706 243.873 336.598 242.505 L 336.598 242.505 L 336.598 242.505 Q 336.922 242.451 337.282 242.451 L 337.282 242.451 L 337.282 242.451 Q 338.128 242.451 338.128 242.991 L 338.128 242.991 L 338.128 242.991 Q 338.128 243.063 338.092 243.567 L 338.092 243.567 L 338.092 243.567 Q 338.056 244.071 338.029 244.827 L 338.029 244.827 L 338.029 244.827 Q 338.002 245.583 338.002 246.267 L 338.002 246.267 L 338.002 246.267 Q 338.758 246.285 340.27 246.285 L 340.27 246.285 L 340.27 246.285 Q 341.728 246.285 342.466 246.267 L 342.466 246.267 L 342.466 245.691 L 342.466 245.691 Q 342.448 243.801 342.358 242.505 L 342.358 242.505 L 342.358 242.505 Q 342.682 242.451 343.042 242.451 L 343.042 242.451 L 343.042 242.451 Q 343.888 242.451 343.888 242.991 L 343.888 242.991 L 343.888 242.991 Q 343.888 243.063 343.852 243.549 L 343.852 243.549 L 343.852 243.549 Q 343.816 244.035 343.789 244.755 L 343.789 244.755 L 343.789 244.755 Q 343.762 245.475 343.762 246.123 L 343.762 246.123 L 343.762 248.949 L 343.762 248.949 Q 343.762 250.839 344.05 251.721 L 344.05 251.721 L 344.05 251.721 Q 343.78 251.829 343.258 251.829 L 343.258 251.829 L 343.258 251.829 Q 342.772 251.829 342.601 251.649 L 342.601 251.649 L 342.601 251.649 Q 342.43 251.469 342.43 251.037 L 342.43 251.037 L 342.43 251.037 Q 342.43 250.821 342.448 249.939 L 342.448 249.939 L 342.448 249.939 Q 342.466 249.057 342.466 248.553 L 342.466 248.553 L 342.466 247.221 L 342.466 247.221 Q 341.71 247.239 340.252 247.239 L 340.252 247.239 L 340.252 247.239 Q 338.74 247.239 338.002 247.221 L 338.002 247.221 L 338.002 248.949 L 338.002 248.949 Q 338.002 250.839 338.29 251.721 L 338.29 251.721 L 338.29 251.721 Q 338.02 251.829 337.498 251.829 L 337.498 251.829 L 337.498 251.829 Q 337.012 251.829 336.841 251.649 L 336.841 251.649 L 336.841 251.649 Q 336.67 251.469 336.67 251.037 L 336.67 251.037 L 336.67 251.037 Q 336.67 250.821 336.688 249.939 L 336.688 249.939 L 336.688 249.939 Q 336.706 249.057 336.706 248.553 Z  M 348.442 243.513 L 348.442 243.513 L 348.442 243.513 Q 348.496 243.945 348.496 246.303 L 348.496 246.303 L 349.648 246.303 L 349.648 246.303 Q 350.854 246.303 351.376 246.249 L 351.376 246.249 L 351.376 246.249 Q 351.43 246.393 351.43 246.645 L 351.43 246.645 L 351.43 246.645 Q 351.43 247.005 351.277 247.14 L 351.277 247.14 L 351.277 247.14 Q 351.124 247.275 350.8 247.293 L 350.8 247.293 L 350.8 247.293 Q 350.422 247.311 349.774 247.311 L 349.774 247.311 L 348.496 247.311 L 348.496 247.311 Q 348.496 250.209 348.604 250.803 L 348.604 250.803 L 348.604 250.803 Q 349.252 250.839 349.648 250.839 L 349.648 250.839 L 349.648 250.839 Q 352.024 250.839 352.762 250.515 L 352.762 250.515 L 352.762 250.515 Q 352.888 250.839 352.888 251.199 L 352.888 251.199 L 352.888 251.199 Q 352.888 251.487 352.744 251.613 L 352.744 251.613 L 352.744 251.613 Q 352.474 251.811 350.296 251.811 L 350.296 251.811 L 350.296 251.811 Q 349.864 251.811 348.91 251.802 L 348.91 251.802 L 348.91 251.802 Q 347.956 251.793 347.92 251.793 L 347.92 251.793 L 347.92 251.793 Q 347.47 251.775 347.317 251.595 L 347.317 251.595 L 347.317 251.595 Q 347.164 251.415 347.164 251.001 L 347.164 251.001 L 347.164 251.001 Q 347.164 250.749 347.182 249.894 L 347.182 249.894 L 347.182 249.894 Q 347.2 249.039 347.2 248.553 L 347.2 248.553 L 347.2 245.799 L 347.2 245.799 Q 347.2 243.747 346.984 242.577 L 346.984 242.577 L 346.984 242.577 Q 348.748 242.451 350.278 242.451 L 350.278 242.451 L 350.278 242.451 Q 352.456 242.451 352.726 242.667 L 352.726 242.667 L 352.726 242.667 Q 352.87 242.793 352.87 243.081 L 352.87 243.081 L 352.87 243.081 Q 352.87 243.441 352.744 243.765 L 352.744 243.765 L 352.744 243.765 Q 351.88 243.477 350.044 243.477 L 350.044 243.477 L 350.044 243.477 Q 349.342 243.477 348.442 243.513 Z  M 364.66 245.673 L 364.66 245.673 L 364.66 248.949 L 364.66 248.949 Q 364.66 250.839 364.93 251.739 L 364.93 251.739 L 364.93 251.739 Q 364.696 251.829 364.192 251.829 L 364.192 251.829 L 364.192 251.829 Q 363.688 251.829 363.517 251.649 L 363.517 251.649 L 363.517 251.649 Q 363.346 251.469 363.346 251.037 L 363.346 251.037 L 363.346 251.037 Q 363.346 250.551 363.355 248.328 L 363.355 248.328 L 363.355 248.328 Q 363.364 246.105 363.364 244.359 L 363.364 244.359 L 363.364 244.359 Q 362.176 246.825 360.61 251.775 L 360.61 251.775 L 360.61 251.775 Q 360.394 251.829 360.034 251.829 L 360.034 251.829 L 360.034 251.829 Q 359.476 251.793 359.314 251.469 L 359.314 251.469 L 359.314 251.469 Q 358.918 250.659 358 248.175 L 358 248.175 L 358 248.175 Q 357.082 245.691 356.434 244.359 L 356.434 244.359 L 356.434 248.949 L 356.434 248.949 Q 356.434 250.839 356.722 251.739 L 356.722 251.739 L 356.722 251.739 Q 356.362 251.829 356.074 251.829 L 356.074 251.829 L 356.074 251.829 Q 355.606 251.829 355.444 251.649 L 355.444 251.649 L 355.444 251.649 Q 355.282 251.469 355.282 251.037 L 355.282 251.037 L 355.282 251.037 Q 355.282 250.821 355.291 249.939 L 355.291 249.939 L 355.291 249.939 Q 355.3 249.057 355.3 248.553 L 355.3 248.553 L 355.3 245.025 L 355.3 245.025 Q 355.3 243.441 355.03 242.541 L 355.03 242.541 L 355.03 242.541 Q 355.57 242.433 355.966 242.433 L 355.966 242.433 L 355.966 242.433 Q 356.704 242.433 357.118 243.117 L 357.118 243.117 L 357.118 243.117 Q 357.694 244.017 358.261 245.358 L 358.261 245.358 L 358.261 245.358 Q 358.828 246.699 359.152 247.644 L 359.152 247.644 L 359.152 247.644 Q 359.476 248.589 360.016 250.281 L 360.016 250.281 L 360.016 250.281 Q 361.114 245.907 362.878 243.099 L 362.878 243.099 L 362.878 243.099 Q 363.274 242.433 364.03 242.433 L 364.03 242.433 L 364.03 242.433 Q 364.462 242.433 364.93 242.541 L 364.93 242.541 L 364.93 242.541 Q 364.66 243.387 364.66 245.673 Z  M 372.004 247.995 L 372.004 247.995 L 372.004 247.995 Q 371.662 247.185 370.546 244.161 L 370.546 244.161 L 370.546 244.161 Q 369.646 246.753 369.124 247.977 L 369.124 247.977 L 369.124 247.977 Q 370.204 248.013 370.78 248.013 L 370.78 248.013 L 370.78 248.013 Q 371.626 248.013 372.004 247.995 Z  M 370.492 248.967 L 370.492 248.967 L 370.492 248.967 Q 370.114 248.967 368.746 248.931 L 368.746 248.931 L 368.746 248.931 Q 368.656 249.147 368.359 249.885 L 368.359 249.885 L 368.359 249.885 Q 368.062 250.623 367.882 251.118 L 367.882 251.118 L 367.882 251.118 Q 367.702 251.613 367.576 252.081 L 367.576 252.081 L 367.576 252.081 Q 366.514 251.937 366.514 251.523 L 366.514 251.523 L 366.514 251.523 Q 366.514 251.343 366.685 250.929 L 366.685 250.929 L 366.685 250.929 Q 366.856 250.515 367.279 249.552 L 367.279 249.552 L 367.279 249.552 Q 367.702 248.589 368.08 247.617 L 368.08 247.617 L 368.08 247.617 Q 369.484 243.999 369.916 242.541 L 369.916 242.541 L 369.916 242.541 Q 370.204 242.487 370.582 242.487 L 370.582 242.487 L 370.582 242.487 Q 370.978 242.487 371.14 242.604 L 371.14 242.604 L 371.14 242.604 Q 371.302 242.721 371.5 243.243 L 371.5 243.243 L 371.5 243.243 Q 371.644 243.621 372.283 245.34 L 372.283 245.34 L 372.283 245.34 Q 372.922 247.059 373.282 247.977 L 373.282 247.977 L 373.282 247.977 Q 374.146 250.101 374.974 251.667 L 374.974 251.667 L 374.974 251.667 Q 374.47 251.919 374.164 251.919 L 374.164 251.919 L 374.164 251.919 Q 373.624 251.919 373.426 251.559 L 373.426 251.559 L 373.426 251.559 Q 373.318 251.307 372.364 248.931 L 372.364 248.931 L 372.364 248.931 Q 370.816 248.967 370.492 248.967 Z  M 274.804 253.935 L 274.804 253.935 L 274.804 253.935 Q 274.138 253.935 274.066 252.909 L 274.066 252.909 L 274.066 252.909 Q 274.66 252.783 275.038 252.576 L 275.038 252.576 L 275.038 252.576 Q 275.416 252.369 275.632 252.144 L 275.632 252.144 L 275.632 252.144 Q 275.848 251.919 275.947 251.433 L 275.947 251.433 L 275.947 251.433 Q 276.046 250.947 276.064 250.551 L 276.064 250.551 L 276.064 250.551 Q 276.082 250.155 276.082 249.345 L 276.082 249.345 L 276.082 249.345 Q 276.082 248.967 276.073 246.978 L 276.073 246.978 L 276.073 246.978 Q 276.064 244.989 276.064 244.035 L 276.064 244.035 L 276.064 244.035 Q 276.064 241.497 275.938 239.859 L 275.938 239.859 L 275.938 239.859 Q 276.244 239.805 276.676 239.805 L 276.676 239.805 L 276.676 239.805 Q 277.558 239.805 277.558 240.489 L 277.558 240.489 L 277.558 240.489 Q 277.558 240.579 277.522 241.155 L 277.522 241.155 L 277.522 241.155 Q 277.486 241.731 277.45 242.586 L 277.45 242.586 L 277.45 242.586 Q 277.414 243.441 277.414 244.215 L 277.414 244.215 L 277.414 249.795 L 277.414 249.795 Q 277.414 250.785 277.198 251.559 L 277.198 251.559 L 277.198 251.559 Q 276.982 252.333 276.667 252.765 L 276.667 252.765 L 276.667 252.765 Q 276.352 253.197 275.965 253.476 L 275.965 253.476 L 275.965 253.476 Q 275.578 253.755 275.299 253.845 L 275.299 253.845 L 275.299 253.845 Q 275.02 253.935 274.804 253.935 Z  M 285.964 242.199 L 285.964 242.199 L 285.964 242.199 Q 285.658 241.605 284.866 241.218 L 284.866 241.218 L 284.866 241.218 Q 284.074 240.831 283.228 240.831 L 283.228 240.831 L 283.228 240.831 Q 282.31 240.831 281.689 241.335 L 281.689 241.335 L 281.689 241.335 Q 281.068 241.839 281.068 242.811 L 281.068 242.811 L 281.068 242.811 Q 281.068 243.549 281.527 244.026 L 281.527 244.026 L 281.527 244.026 Q 281.986 244.503 282.67 244.692 L 282.67 244.692 L 282.67 244.692 Q 283.354 244.881 284.164 245.151 L 284.164 245.151 L 284.164 245.151 Q 284.974 245.421 285.658 245.709 L 285.658 245.709 L 285.658 245.709 Q 286.342 245.997 286.801 246.699 L 286.801 246.699 L 286.801 246.699 Q 287.26 247.401 287.26 248.445 L 287.26 248.445 L 287.26 248.445 Q 287.26 249.381 286.9 250.092 L 286.9 250.092 L 286.9 250.092 Q 286.54 250.803 285.928 251.199 L 285.928 251.199 L 285.928 251.199 Q 285.316 251.595 284.605 251.784 L 284.605 251.784 L 284.605 251.784 Q 283.894 251.973 283.102 251.973 L 283.102 251.973 L 283.102 251.973 Q 281.698 251.973 280.627 251.478 L 280.627 251.478 L 280.627 251.478 Q 279.556 250.983 279.556 250.281 L 279.556 250.281 L 279.556 250.281 Q 279.556 250.047 279.709 249.858 L 279.709 249.858 L 279.709 249.858 Q 279.862 249.669 280.006 249.579 L 280.006 249.579 L 280.006 249.579 Q 280.15 249.489 280.474 249.327 L 280.474 249.327 L 280.474 249.327 Q 280.816 249.993 281.707 250.416 L 281.707 250.416 L 281.707 250.416 Q 282.598 250.839 283.516 250.839 L 283.516 250.839 L 283.516 250.839 Q 284.524 250.839 285.244 250.29 L 285.244 250.29 L 285.244 250.29 Q 285.964 249.741 285.964 248.715 L 285.964 248.715 L 285.964 248.715 Q 285.964 247.869 285.325 247.374 L 285.325 247.374 L 285.325 247.374 Q 284.686 246.879 283.777 246.627 L 283.777 246.627 L 283.777 246.627 Q 282.868 246.375 281.959 246.069 L 281.959 246.069 L 281.959 246.069 Q 281.05 245.763 280.411 245.034 L 280.411 245.034 L 280.411 245.034 Q 279.772 244.305 279.772 243.099 L 279.772 243.099 L 279.772 243.099 Q 279.772 241.443 280.861 240.561 L 280.861 240.561 L 280.861 240.561 Q 281.95 239.679 283.642 239.679 L 283.642 239.679 L 283.642 239.679 Q 284.884 239.679 285.937 240.111 L 285.937 240.111 L 285.937 240.111 Q 286.99 240.543 286.99 241.299 L 286.99 241.299 L 286.99 241.299 Q 286.99 242.019 285.964 242.199 Z  M 294.46 251.973 L 294.46 251.973 L 294.46 251.973 Q 291.94 251.973 290.446 250.299 L 290.446 250.299 L 290.446 250.299 Q 288.952 248.625 288.952 245.835 L 288.952 245.835 L 288.952 245.835 Q 288.952 243.009 290.446 241.344 L 290.446 241.344 L 290.446 241.344 Q 291.94 239.679 294.46 239.679 L 294.46 239.679 L 294.46 239.679 Q 296.998 239.679 298.501 241.344 L 298.501 241.344 L 298.501 241.344 Q 300.004 243.009 300.004 245.835 L 300.004 245.835 L 300.004 245.835 Q 300.004 248.625 298.501 250.299 L 298.501 250.299 L 298.501 250.299 Q 296.998 251.973 294.46 251.973 Z  M 298.492 246.159 L 298.492 246.159 L 298.492 246.159 Q 298.492 245.151 298.267 244.233 L 298.267 244.233 L 298.267 244.233 Q 298.042 243.315 297.592 242.523 L 297.592 242.523 L 297.592 242.523 Q 297.142 241.731 296.332 241.254 L 296.332 241.254 L 296.332 241.254 Q 295.522 240.777 294.478 240.777 L 294.478 240.777 L 294.478 240.777 Q 292.624 240.777 291.526 242.046 L 291.526 242.046 L 291.526 242.046 Q 290.428 243.315 290.428 245.277 L 290.428 245.277 L 290.428 245.277 Q 290.428 246.339 290.653 247.293 L 290.653 247.293 L 290.653 247.293 Q 290.878 248.247 291.328 249.075 L 291.328 249.075 L 291.328 249.075 Q 291.778 249.903 292.579 250.389 L 292.579 250.389 L 292.579 250.389 Q 293.38 250.875 294.442 250.875 L 294.442 250.875 L 294.442 250.875 Q 296.386 250.875 297.439 249.57 L 297.439 249.57 L 297.439 249.57 Q 298.492 248.265 298.492 246.159 Z  M 310.804 251.775 L 310.804 251.775 L 310.804 251.775 Q 310.516 251.847 310.21 251.847 L 310.21 251.847 L 310.21 251.847 Q 309.598 251.847 309.274 251.361 L 309.274 251.361 L 309.274 251.361 Q 308.536 250.227 306.718 247.014 L 306.718 247.014 L 306.718 247.014 Q 304.9 243.801 303.604 241.857 L 303.604 241.857 L 303.604 241.857 Q 303.586 242.541 303.586 248.139 L 303.586 248.139 L 303.586 248.139 Q 303.586 250.569 303.928 251.703 L 303.928 251.703 L 303.928 251.703 Q 303.604 251.847 303.262 251.847 L 303.262 251.847 L 303.262 251.847 Q 302.74 251.847 302.56 251.613 L 302.56 251.613 L 302.56 251.613 Q 302.38 251.379 302.38 250.821 L 302.38 250.821 L 302.38 250.821 Q 302.38 250.533 302.398 249.399 L 302.398 249.399 L 302.398 249.399 Q 302.416 248.265 302.416 247.635 L 302.416 247.635 L 302.416 244.035 L 302.416 244.035 Q 302.416 241.029 302.074 239.931 L 302.074 239.931 L 302.074 239.931 Q 302.416 239.787 302.92 239.787 L 302.92 239.787 L 302.92 239.787 Q 303.28 239.787 303.487 239.913 L 303.487 239.913 L 303.487 239.913 Q 303.694 240.039 303.928 240.309 L 303.928 240.309 L 303.928 240.309 Q 304.828 241.335 306.52 244.143 L 306.52 244.143 L 306.52 244.143 Q 308.212 246.951 309.616 249.651 L 309.616 249.651 L 309.616 249.651 Q 309.562 249.003 309.535 247.599 L 309.535 247.599 L 309.535 247.599 Q 309.508 246.195 309.508 245.115 L 309.508 245.115 L 309.508 244.035 L 309.508 244.035 Q 309.508 241.497 309.382 239.859 L 309.382 239.859 L 309.382 239.859 Q 309.688 239.805 309.94 239.805 L 309.94 239.805 L 309.94 239.805 Q 310.822 239.805 310.822 240.489 L 310.822 240.489 L 310.822 240.489 Q 310.822 240.597 310.786 241.218 L 310.786 241.218 L 310.786 241.218 Q 310.75 241.839 310.714 242.766 L 310.714 242.766 L 310.714 242.766 Q 310.678 243.693 310.678 244.521 L 310.678 244.521 L 310.678 247.599 L 310.678 247.599 Q 310.678 250.137 310.804 251.775 Z " fill="rgb(113,113,113)"/><g><path d=" M 305.458 220.474 C 299.948 219.277 295.81 216.047 294.37 211.819 C 293.365 208.871 293.508 204.091 294.794 197.628 C 295.412 194.527 295.917 190.823 295.916 189.399 C 295.915 184.667 293.739 182.1 289.425 181.743 L 286.938 181.537 L 286.938 178.492 L 286.938 175.447 L 289.295 175.128 C 292.734 174.662 294.06 173.819 295.119 171.426 C 295.897 169.666 295.996 168.793 295.762 165.733 C 295.61 163.745 295.081 160.199 294.585 157.853 C 293.326 151.893 293.379 147.054 294.734 144.143 C 296.73 139.856 301.654 136.692 307.375 136.02 L 309.835 135.731 L 309.835 138.935 L 309.835 142.14 L 308.181 142.14 C 305.926 142.14 302.772 143.746 301.966 145.306 C 301.192 146.802 301.134 148.951 301.764 152.69 C 302.761 158.6 303.097 164.269 302.624 167.226 C 302.084 170.609 300.111 174.602 297.942 176.705 L 296.441 178.16 L 298.496 180.684 C 301.029 183.793 302.014 185.963 302.623 189.773 C 303.104 192.787 302.73 199.041 301.769 204.045 C 300.428 211.025 301.975 213.782 307.702 214.615 L 309.835 214.926 L 309.835 218.04 C 309.834 221.593 310.052 221.472 305.458 220.474 L 305.458 220.474 Z " fill="rgb(72,79,78)"/><path d=" M 342.665 218.004 L 342.665 214.912 L 345.273 214.374 C 348.153 213.779 350.433 212.002 350.947 209.952 C 351.109 209.306 350.804 205.925 350.268 202.44 C 348.523 191.075 349.49 185.212 353.901 180.426 L 355.788 178.379 L 354.375 176.769 C 349.312 171.003 348.433 165.886 350.361 153.392 C 351.333 147.097 351.334 147.036 350.472 145.535 C 349.458 143.768 346.293 142.002 344.142 142.002 L 342.666 142.002 L 342.666 138.859 C 342.666 135.282 342.591 135.33 346.796 136.221 C 351.841 137.291 355.456 139.852 357.331 143.685 C 358.407 145.884 358.568 146.74 358.538 150.062 C 358.519 152.173 358.084 156.021 357.57 158.614 C 355.663 168.239 355.833 170.801 358.544 173.29 C 359.804 174.447 360.631 174.783 362.833 175.032 L 365.563 175.341 L 365.563 178.425 L 365.563 181.51 L 363.43 181.511 C 360.692 181.512 358.426 182.668 357.272 184.653 C 356.061 186.738 356.137 191.279 357.493 197.898 C 358.646 203.524 358.832 208.662 357.987 211.551 C 357.095 214.597 353.125 218.291 349.4 219.54 C 347.795 220.077 345.623 220.647 344.573 220.807 L 342.666 221.097 L 342.666 218.005 L 342.665 218.005 L 342.665 218.004 Z " fill="rgb(72,79,78)"/><path d=" M 316.591 212.935 C 315.291 211.282 315.48 208.434 317.076 205.641 C 318.257 203.574 323.195 196.798 326.761 192.353 L 328.2 190.559 L 325.907 183.909 C 323.334 176.45 323.349 176.306 326.741 175.8 L 328.611 175.521 L 330.698 179.785 C 331.847 182.13 332.951 184.049 333.151 184.049 C 333.352 184.049 335.41 181.815 337.724 179.085 C 341.745 174.342 341.997 174.132 343.358 174.384 C 344.179 174.536 344.909 174.443 345.081 174.164 C 345.485 173.509 346.647 174.478 346.647 175.472 C 346.647 175.879 346.069 176.915 345.362 177.774 C 342.476 181.28 336.321 189.573 336.321 189.954 C 336.321 190.179 337.562 193.076 339.078 196.391 L 341.835 202.42 L 340.998 203.672 C 340.537 204.361 340.154 205.106 340.148 205.326 C 340.142 205.545 339.795 205.941 339.377 206.204 C 338.319 206.872 337.536 206.058 334.3 200.919 C 332.819 198.566 331.46 196.637 331.282 196.631 C 330.883 196.617 326.457 203.162 323.036 208.823 C 320.019 213.816 320.569 213.176 318.879 213.661 C 317.664 214.01 317.36 213.914 316.591 212.935 L 316.591 212.935 Z " fill="rgb(72,79,78)"/><path d=" M 316.901 181.643 C 314.163 176.747 309.242 169.644 307.256 167.722 C 306.247 166.746 305.422 165.718 305.422 165.438 C 305.422 164.672 307.48 163.885 309.483 163.885 C 311.644 163.885 313.932 165.766 315.973 169.22 C 316.714 170.474 317.444 171.504 317.597 171.509 C 317.749 171.514 318.626 169.407 319.545 166.828 C 321.513 161.305 326.702 150.567 328.739 147.801 C 330.486 145.43 333.103 144.155 336.251 144.142 C 340.367 144.124 340.378 144.307 336.511 148.337 C 330.612 154.487 327.904 159.548 322.192 175.109 C 320.607 179.431 319.151 183.355 318.957 183.83 C 318.665 184.55 318.323 184.187 316.901 181.643 Z " fill="rgb(72,79,78)"/></g></g><g style="isolation:isolate"><path d=" M 138.278 247.635 L 138.278 247.635 L 138.278 244.035 L 138.278 244.035 Q 138.278 242.361 138.224 240.957 L 138.224 240.957 L 138.224 240.957 Q 135.668 240.957 134.804 241.029 L 134.804 241.029 L 134.804 241.029 Q 134.75 240.867 134.75 240.543 L 134.75 240.543 L 134.75 240.543 Q 134.75 240.183 134.939 240.057 L 134.939 240.057 L 134.939 240.057 Q 135.128 239.931 135.542 239.913 L 135.542 239.913 L 135.542 239.913 Q 135.992 239.895 137.468 239.895 L 137.468 239.895 L 139.592 239.895 L 139.592 239.895 Q 142.436 239.895 143.066 239.841 L 143.066 239.841 L 143.066 239.841 Q 143.12 240.003 143.12 240.309 L 143.12 240.309 L 143.12 240.309 Q 143.12 240.669 142.931 240.795 L 142.931 240.795 L 142.931 240.795 Q 142.742 240.921 142.328 240.939 L 142.328 240.939 L 142.328 240.939 Q 141.77 240.957 139.754 240.957 L 139.754 240.957 L 139.754 240.957 Q 139.628 243.531 139.628 244.521 L 139.628 244.521 L 139.628 248.139 L 139.628 248.139 Q 139.628 250.569 139.97 251.703 L 139.97 251.703 L 139.97 251.703 Q 139.646 251.847 139.124 251.847 L 139.124 251.847 L 139.124 251.847 Q 138.602 251.847 138.422 251.613 L 138.422 251.613 L 138.422 251.613 Q 138.242 251.379 138.242 250.821 L 138.242 250.821 L 138.242 250.821 Q 138.242 250.533 138.26 249.399 L 138.26 249.399 L 138.26 249.399 Q 138.278 248.265 138.278 247.635 Z  M 150.608 243.081 L 150.608 243.081 L 150.608 243.081 Q 150.608 243.513 149.582 244.989 L 149.582 244.989 L 149.582 244.989 Q 148.556 246.465 147.638 247.527 L 147.638 247.527 L 147.638 248.877 L 147.638 248.877 Q 147.638 250.785 147.908 251.721 L 147.908 251.721 L 147.908 251.721 Q 147.638 251.829 147.116 251.829 L 147.116 251.829 L 147.116 251.829 Q 146.63 251.829 146.468 251.649 L 146.468 251.649 L 146.468 251.649 Q 146.306 251.469 146.306 251.037 L 146.306 251.037 L 146.306 251.037 Q 146.306 250.983 146.315 250.074 L 146.315 250.074 L 146.315 250.074 Q 146.324 249.165 146.324 248.553 L 146.324 248.553 L 146.324 247.599 L 146.324 247.599 Q 144.218 243.855 143.12 243.153 L 143.12 243.153 L 143.12 243.153 Q 143.732 242.433 144.2 242.433 L 144.2 242.433 L 144.2 242.433 Q 144.65 242.433 144.992 242.919 L 144.992 242.919 L 144.992 242.919 Q 146.108 244.485 147.206 246.537 L 147.206 246.537 L 147.206 246.537 Q 147.926 245.547 148.628 244.197 L 148.628 244.197 L 148.628 244.197 Q 149.33 242.847 149.366 242.361 L 149.366 242.361 L 149.366 242.361 Q 150.608 242.433 150.608 243.081 Z  M 155.09 247.473 L 155.09 247.473 L 155.09 247.473 Q 156.026 247.473 156.548 246.942 L 156.548 246.942 L 156.548 246.942 Q 157.07 246.411 157.07 245.511 L 157.07 245.511 L 157.07 245.511 Q 157.07 244.269 156.485 243.801 L 156.485 243.801 L 156.485 243.801 Q 155.9 243.333 154.658 243.333 L 154.658 243.333 L 154.658 243.333 Q 154.586 243.333 153.668 243.387 L 153.668 243.387 L 153.668 243.387 Q 153.722 244.575 153.722 246.105 L 153.722 246.105 L 153.722 247.185 L 153.722 247.185 Q 154.298 247.473 155.09 247.473 Z  M 152.408 248.553 L 152.408 248.553 L 152.408 245.745 L 152.408 245.745 Q 152.408 243.801 152.228 242.523 L 152.228 242.523 L 152.228 242.523 Q 153.2 242.361 154.478 242.361 L 154.478 242.361 L 154.478 242.361 Q 158.51 242.361 158.51 245.421 L 158.51 245.421 L 158.51 245.421 Q 158.51 246.915 157.601 247.689 L 157.601 247.689 L 157.601 247.689 Q 156.692 248.463 155.468 248.463 L 155.468 248.463 L 155.468 248.463 Q 154.406 248.463 153.722 248.013 L 153.722 248.013 L 153.722 249.003 L 153.722 249.003 Q 153.722 250.857 154.01 251.739 L 154.01 251.739 L 154.01 251.739 Q 153.686 251.829 153.218 251.829 L 153.218 251.829 L 153.218 251.829 Q 152.732 251.829 152.561 251.649 L 152.561 251.649 L 152.561 251.649 Q 152.39 251.469 152.39 251.037 L 152.39 251.037 L 152.39 251.037 Q 152.39 250.821 152.399 249.939 L 152.399 249.939 L 152.399 249.939 Q 152.408 249.057 152.408 248.553 Z  M 161.912 243.513 L 161.912 243.513 L 161.912 243.513 Q 161.966 243.945 161.966 246.303 L 161.966 246.303 L 163.118 246.303 L 163.118 246.303 Q 164.324 246.303 164.846 246.249 L 164.846 246.249 L 164.846 246.249 Q 164.9 246.393 164.9 246.645 L 164.9 246.645 L 164.9 246.645 Q 164.9 247.005 164.747 247.14 L 164.747 247.14 L 164.747 247.14 Q 164.594 247.275 164.27 247.293 L 164.27 247.293 L 164.27 247.293 Q 163.892 247.311 163.244 247.311 L 163.244 247.311 L 161.966 247.311 L 161.966 247.311 Q 161.966 250.209 162.074 250.803 L 162.074 250.803 L 162.074 250.803 Q 162.722 250.839 163.118 250.839 L 163.118 250.839 L 163.118 250.839 Q 165.494 250.839 166.232 250.515 L 166.232 250.515 L 166.232 250.515 Q 166.358 250.839 166.358 251.199 L 166.358 251.199 L 166.358 251.199 Q 166.358 251.487 166.214 251.613 L 166.214 251.613 L 166.214 251.613 Q 165.944 251.811 163.766 251.811 L 163.766 251.811 L 163.766 251.811 Q 163.334 251.811 162.38 251.802 L 162.38 251.802 L 162.38 251.802 Q 161.426 251.793 161.39 251.793 L 161.39 251.793 L 161.39 251.793 Q 160.94 251.775 160.787 251.595 L 160.787 251.595 L 160.787 251.595 Q 160.634 251.415 160.634 251.001 L 160.634 251.001 L 160.634 251.001 Q 160.634 250.749 160.652 249.894 L 160.652 249.894 L 160.652 249.894 Q 160.67 249.039 160.67 248.553 L 160.67 248.553 L 160.67 245.799 L 160.67 245.799 Q 160.67 243.747 160.454 242.577 L 160.454 242.577 L 160.454 242.577 Q 162.218 242.451 163.748 242.451 L 163.748 242.451 L 163.748 242.451 Q 165.926 242.451 166.196 242.667 L 166.196 242.667 L 166.196 242.667 Q 166.34 242.793 166.34 243.081 L 166.34 243.081 L 166.34 243.081 Q 166.34 243.441 166.214 243.765 L 166.214 243.765 L 166.214 243.765 Q 165.35 243.477 163.514 243.477 L 163.514 243.477 L 163.514 243.477 Q 162.812 243.477 161.912 243.513 Z  M 174.242 242.199 L 174.242 242.199 L 174.242 242.199 Q 173.936 241.605 173.144 241.218 L 173.144 241.218 L 173.144 241.218 Q 172.352 240.831 171.506 240.831 L 171.506 240.831 L 171.506 240.831 Q 170.588 240.831 169.967 241.335 L 169.967 241.335 L 169.967 241.335 Q 169.346 241.839 169.346 242.811 L 169.346 242.811 L 169.346 242.811 Q 169.346 243.549 169.805 244.026 L 169.805 244.026 L 169.805 244.026 Q 170.264 244.503 170.948 244.692 L 170.948 244.692 L 170.948 244.692 Q 171.632 244.881 172.442 245.151 L 172.442 245.151 L 172.442 245.151 Q 173.252 245.421 173.936 245.709 L 173.936 245.709 L 173.936 245.709 Q 174.62 245.997 175.079 246.699 L 175.079 246.699 L 175.079 246.699 Q 175.538 247.401 175.538 248.445 L 175.538 248.445 L 175.538 248.445 Q 175.538 249.381 175.178 250.092 L 175.178 250.092 L 175.178 250.092 Q 174.818 250.803 174.206 251.199 L 174.206 251.199 L 174.206 251.199 Q 173.594 251.595 172.883 251.784 L 172.883 251.784 L 172.883 251.784 Q 172.172 251.973 171.38 251.973 L 171.38 251.973 L 171.38 251.973 Q 169.976 251.973 168.905 251.478 L 168.905 251.478 L 168.905 251.478 Q 167.834 250.983 167.834 250.281 L 167.834 250.281 L 167.834 250.281 Q 167.834 250.047 167.987 249.858 L 167.987 249.858 L 167.987 249.858 Q 168.14 249.669 168.284 249.579 L 168.284 249.579 L 168.284 249.579 Q 168.428 249.489 168.752 249.327 L 168.752 249.327 L 168.752 249.327 Q 169.094 249.993 169.985 250.416 L 169.985 250.416 L 169.985 250.416 Q 170.876 250.839 171.794 250.839 L 171.794 250.839 L 171.794 250.839 Q 172.802 250.839 173.522 250.29 L 173.522 250.29 L 173.522 250.29 Q 174.242 249.741 174.242 248.715 L 174.242 248.715 L 174.242 248.715 Q 174.242 247.869 173.603 247.374 L 173.603 247.374 L 173.603 247.374 Q 172.964 246.879 172.055 246.627 L 172.055 246.627 L 172.055 246.627 Q 171.146 246.375 170.237 246.069 L 170.237 246.069 L 170.237 246.069 Q 169.328 245.763 168.689 245.034 L 168.689 245.034 L 168.689 245.034 Q 168.05 244.305 168.05 243.099 L 168.05 243.099 L 168.05 243.099 Q 168.05 241.443 169.139 240.561 L 169.139 240.561 L 169.139 240.561 Q 170.228 239.679 171.92 239.679 L 171.92 239.679 L 171.92 239.679 Q 173.162 239.679 174.215 240.111 L 174.215 240.111 L 174.215 240.111 Q 175.268 240.543 175.268 241.299 L 175.268 241.299 L 175.268 241.299 Q 175.268 242.019 174.242 242.199 Z  M 184.142 249.759 L 184.142 249.759 L 184.142 249.759 Q 184.844 250.047 184.844 250.569 L 184.844 250.569 L 184.844 250.569 Q 184.844 251.109 183.998 251.514 L 183.998 251.514 L 183.998 251.514 Q 183.152 251.919 181.874 251.919 L 181.874 251.919 L 181.874 251.919 Q 179.768 251.919 178.49 250.605 L 178.49 250.605 L 178.49 250.605 Q 177.212 249.291 177.212 247.149 L 177.212 247.149 L 177.212 247.149 Q 177.212 244.899 178.481 243.63 L 178.481 243.63 L 178.481 243.63 Q 179.75 242.361 181.946 242.361 L 181.946 242.361 L 181.946 242.361 Q 183.116 242.361 183.908 242.802 L 183.908 242.802 L 183.908 242.802 Q 184.7 243.243 184.7 243.891 L 184.7 243.891 L 184.7 243.891 Q 184.7 244.557 183.71 244.719 L 183.71 244.719 L 183.71 244.719 Q 183.458 244.053 182.873 243.702 L 182.873 243.702 L 182.873 243.702 Q 182.288 243.351 181.64 243.351 L 181.64 243.351 L 181.64 243.351 Q 180.326 243.351 179.48 244.359 L 179.48 244.359 L 179.48 244.359 Q 178.634 245.367 178.634 246.861 L 178.634 246.861 L 178.634 246.861 Q 178.634 248.607 179.48 249.777 L 179.48 249.777 L 179.48 249.777 Q 180.326 250.947 181.856 250.947 L 181.856 250.947 L 181.856 250.947 Q 182.54 250.947 183.161 250.641 L 183.161 250.641 L 183.161 250.641 Q 183.782 250.335 184.142 249.759 Z  M 192.656 250.533 L 192.656 250.533 L 192.656 250.533 Q 193.052 250.929 193.52 250.929 L 193.52 250.929 L 193.52 250.929 Q 193.61 250.929 193.898 250.893 L 193.898 250.893 L 193.898 250.893 Q 194.024 251.145 194.024 251.361 L 194.024 251.361 L 194.024 251.361 Q 194.024 251.919 192.854 251.919 L 192.854 251.919 L 192.854 251.919 Q 192.332 251.919 191.846 251.532 L 191.846 251.532 L 191.846 251.532 Q 191.36 251.145 190.91 250.416 L 190.91 250.416 L 190.91 250.416 Q 190.46 249.687 190.217 249.192 L 190.217 249.192 L 190.217 249.192 Q 189.974 248.697 189.632 247.923 L 189.632 247.923 L 189.632 247.923 Q 189.29 247.851 189.29 247.563 L 189.29 247.563 L 189.29 247.563 Q 189.29 247.383 189.416 247.023 L 189.416 247.023 L 189.416 247.023 Q 189.812 247.113 190.1 247.113 L 190.1 247.113 L 190.1 247.113 Q 190.928 247.113 191.45 246.6 L 191.45 246.6 L 191.45 246.6 Q 191.972 246.087 191.972 245.205 L 191.972 245.205 L 191.972 245.205 Q 191.972 244.161 191.396 243.747 L 191.396 243.747 L 191.396 243.747 Q 190.82 243.333 189.632 243.333 L 189.632 243.333 L 189.632 243.333 Q 189.524 243.333 188.552 243.387 L 188.552 243.387 L 188.552 243.387 Q 188.624 244.215 188.624 246.213 L 188.624 246.213 L 188.624 248.985 L 188.624 248.985 Q 188.624 250.857 188.894 251.739 L 188.894 251.739 L 188.894 251.739 Q 188.588 251.829 188.102 251.829 L 188.102 251.829 L 188.102 251.829 Q 187.616 251.829 187.445 251.649 L 187.445 251.649 L 187.445 251.649 Q 187.274 251.469 187.274 251.037 L 187.274 251.037 L 187.274 251.037 Q 187.274 250.821 187.292 249.939 L 187.292 249.939 L 187.292 249.939 Q 187.31 249.057 187.31 248.553 L 187.31 248.553 L 187.31 245.745 L 187.31 245.745 Q 187.31 243.765 187.112 242.523 L 187.112 242.523 L 187.112 242.523 Q 188.084 242.361 189.38 242.361 L 189.38 242.361 L 189.38 242.361 Q 193.412 242.361 193.412 245.187 L 193.412 245.187 L 193.412 245.187 Q 193.412 246.303 192.773 247.005 L 192.773 247.005 L 192.773 247.005 Q 192.134 247.707 191.072 247.941 L 191.072 247.941 L 191.072 247.941 Q 192.17 250.047 192.656 250.533 Z  M 196.328 248.553 L 196.328 248.553 L 196.328 245.745 L 196.328 245.745 Q 196.328 243.873 196.22 242.505 L 196.22 242.505 L 196.22 242.505 Q 196.544 242.451 196.904 242.451 L 196.904 242.451 L 196.904 242.451 Q 197.75 242.451 197.75 242.991 L 197.75 242.991 L 197.75 242.991 Q 197.75 243.063 197.723 243.549 L 197.723 243.549 L 197.723 243.549 Q 197.696 244.035 197.66 244.755 L 197.66 244.755 L 197.66 244.755 Q 197.624 245.475 197.624 246.123 L 197.624 246.123 L 197.624 248.949 L 197.624 248.949 Q 197.624 250.839 197.912 251.721 L 197.912 251.721 L 197.912 251.721 Q 197.642 251.829 197.12 251.829 L 197.12 251.829 L 197.12 251.829 Q 196.634 251.829 196.463 251.649 L 196.463 251.649 L 196.463 251.649 Q 196.292 251.469 196.292 251.037 L 196.292 251.037 L 196.292 251.037 Q 196.292 250.821 196.31 249.939 L 196.31 249.939 L 196.31 249.939 Q 196.328 249.057 196.328 248.553 Z  M 203.726 247.473 L 203.726 247.473 L 203.726 247.473 Q 204.662 247.473 205.184 246.942 L 205.184 246.942 L 205.184 246.942 Q 205.706 246.411 205.706 245.511 L 205.706 245.511 L 205.706 245.511 Q 205.706 244.269 205.121 243.801 L 205.121 243.801 L 205.121 243.801 Q 204.536 243.333 203.294 243.333 L 203.294 243.333 L 203.294 243.333 Q 203.222 243.333 202.304 243.387 L 202.304 243.387 L 202.304 243.387 Q 202.358 244.575 202.358 246.105 L 202.358 246.105 L 202.358 247.185 L 202.358 247.185 Q 202.934 247.473 203.726 247.473 Z  M 201.044 248.553 L 201.044 248.553 L 201.044 245.745 L 201.044 245.745 Q 201.044 243.801 200.864 242.523 L 200.864 242.523 L 200.864 242.523 Q 201.836 242.361 203.114 242.361 L 203.114 242.361 L 203.114 242.361 Q 207.146 242.361 207.146 245.421 L 207.146 245.421 L 207.146 245.421 Q 207.146 246.915 206.237 247.689 L 206.237 247.689 L 206.237 247.689 Q 205.328 248.463 204.104 248.463 L 204.104 248.463 L 204.104 248.463 Q 203.042 248.463 202.358 248.013 L 202.358 248.013 L 202.358 249.003 L 202.358 249.003 Q 202.358 250.857 202.646 251.739 L 202.646 251.739 L 202.646 251.739 Q 202.322 251.829 201.854 251.829 L 201.854 251.829 L 201.854 251.829 Q 201.368 251.829 201.197 251.649 L 201.197 251.649 L 201.197 251.649 Q 201.026 251.469 201.026 251.037 L 201.026 251.037 L 201.026 251.037 Q 201.026 250.821 201.035 249.939 L 201.035 249.939 L 201.035 249.939 Q 201.044 249.057 201.044 248.553 Z  M 210.746 248.553 L 210.746 248.553 L 210.746 245.745 L 210.746 245.745 Q 210.746 244.917 210.71 243.513 L 210.71 243.513 L 210.71 243.513 Q 208.604 243.513 207.92 243.567 L 207.92 243.567 L 207.92 243.567 Q 207.884 243.477 207.884 243.117 L 207.884 243.117 L 207.884 243.117 Q 207.884 242.793 208.037 242.667 L 208.037 242.667 L 208.037 242.667 Q 208.19 242.541 208.532 242.541 L 208.532 242.541 L 208.532 242.541 Q 208.676 242.541 209.243 242.532 L 209.243 242.532 L 209.243 242.532 Q 209.81 242.523 210.17 242.523 L 210.17 242.523 L 211.916 242.523 L 211.916 242.523 Q 214.31 242.523 214.832 242.487 L 214.832 242.487 L 214.832 242.487 Q 214.868 242.667 214.868 242.919 L 214.868 242.919 L 214.868 242.919 Q 214.868 243.513 214.22 243.513 L 214.22 243.513 L 212.132 243.513 L 212.132 243.513 Q 212.132 243.711 212.105 244.188 L 212.105 244.188 L 212.105 244.188 Q 212.078 244.665 212.06 245.169 L 212.06 245.169 L 212.06 245.169 Q 212.042 245.673 212.042 246.123 L 212.042 246.123 L 212.042 248.949 L 212.042 248.949 Q 212.042 250.839 212.33 251.721 L 212.33 251.721 L 212.33 251.721 Q 212.06 251.829 211.538 251.829 L 211.538 251.829 L 211.538 251.829 Q 211.052 251.829 210.881 251.649 L 210.881 251.649 L 210.881 251.649 Q 210.71 251.469 210.71 251.037 L 210.71 251.037 L 210.71 251.037 Q 210.71 250.821 210.728 249.939 L 210.728 249.939 L 210.728 249.939 Q 210.746 249.057 210.746 248.553 Z " fill="rgb(113,113,113)"/><g><path d="M 143.258 137.4 L 209.242 137.4 C 213.662 137.4 217.25 140.988 217.25 145.408 L 217.25 211.392 C 217.25 215.812 213.662 219.4 209.242 219.4 L 143.258 219.4 C 138.838 219.4 135.25 215.812 135.25 211.392 L 135.25 145.408 C 135.25 140.988 138.838 137.4 143.258 137.4 Z" style="stroke:none;fill:#3178C6;stroke-miterlimit:10;"/><path d="M 143.258 137.4 L 209.242 137.4 C 213.662 137.4 217.25 140.988 217.25 145.408 L 217.25 211.392 C 217.25 215.812 213.662 219.4 209.242 219.4 L 143.258 219.4 C 138.838 219.4 135.25 215.812 135.25 211.392 L 135.25 145.408 C 135.25 140.988 138.838 137.4 143.258 137.4 Z" style="stroke:none;fill:#3178C6;stroke-miterlimit:10;"/><path d=" M 186.01 202.656 L 186.01 210.674 C 187.313 211.342 188.855 211.843 190.634 212.177 C 192.414 212.511 194.29 212.678 196.261 212.678 C 198.183 212.678 200.009 212.495 201.738 212.127 C 203.468 211.76 204.984 211.154 206.287 210.31 C 207.591 209.467 208.623 208.365 209.383 207.003 C 210.143 205.642 210.523 203.959 210.523 201.955 C 210.523 200.502 210.306 199.228 209.872 198.134 C 209.437 197.04 208.811 196.067 207.992 195.215 C 207.173 194.363 206.191 193.599 205.047 192.922 C 203.902 192.246 202.611 191.607 201.174 191.006 C 200.121 190.572 199.177 190.15 198.342 189.741 C 197.506 189.331 196.796 188.914 196.211 188.488 C 195.626 188.062 195.175 187.611 194.858 187.135 C 194.54 186.659 194.381 186.12 194.381 185.519 C 194.381 184.968 194.524 184.471 194.808 184.028 C 195.092 183.585 195.493 183.205 196.011 182.888 C 196.529 182.571 197.164 182.324 197.916 182.149 C 198.668 181.974 199.503 181.886 200.422 181.886 C 201.091 181.886 201.797 181.936 202.54 182.036 C 203.284 182.136 204.032 182.291 204.784 182.5 C 205.536 182.708 206.266 182.972 206.977 183.289 C 207.687 183.606 208.343 183.974 208.944 184.391 L 208.944 176.9 C 207.725 176.432 206.392 176.086 204.946 175.86 C 203.501 175.635 201.842 175.522 199.971 175.522 C 198.066 175.522 196.261 175.727 194.557 176.136 C 192.853 176.545 191.353 177.184 190.058 178.052 C 188.763 178.921 187.739 180.028 186.987 181.372 C 186.235 182.717 185.859 184.324 185.859 186.195 C 185.859 188.584 186.549 190.622 187.927 192.309 C 189.306 193.996 191.399 195.424 194.206 196.593 C 195.309 197.044 196.337 197.487 197.289 197.921 C 198.242 198.355 199.065 198.806 199.758 199.274 C 200.451 199.742 200.999 200.251 201.4 200.802 C 201.801 201.353 202.001 201.98 202.001 202.681 C 202.001 203.199 201.876 203.679 201.625 204.122 C 201.375 204.565 200.994 204.949 200.485 205.275 C 199.975 205.6 199.34 205.855 198.58 206.039 C 197.82 206.222 196.93 206.314 195.91 206.314 C 194.173 206.314 192.452 206.009 190.747 205.4 C 189.043 204.79 187.463 203.876 186.01 202.656 L 186.01 202.656 Z  M 172.531 182.902 L 182.816 182.902 L 182.816 176.323 L 154.148 176.323 L 154.148 182.902 L 164.383 182.902 L 164.383 212.198 L 172.531 212.198 L 172.531 182.902 Z " fill-rule="evenodd" fill="rgb(255,255,255)"/></g></g></g></g></svg>